<svg width="1538" height="225" viewBox="0 0 1538 225" fill="none" xmlns="http://www.w3.org/2000/svg">
<g clip-path="url(#clip0_173_347)">
<path d="M35.0957 176.33H77.1564V197.461H35.0957V176.33Z" fill="black"/>
<path d="M54.5571 160.143H82.0982V172.279H54.5571V160.143Z" fill="black"/>
<path d="M190.919 100.339H225.201V185.77H190.919V100.339Z" fill="black"/>
<path d="M281.036 90.7419H322.344V197.459H281.036V90.7419Z" fill="black"/>
<path d="M368.904 49.8245H419.495V186.222H368.904V49.8245Z" fill="black"/>
<path d="M436.407 95.5396H500.923V196.411H436.407V95.5396Z" fill="black"/>
<path d="M544.482 101.086H586.249V180.376H544.482V101.086Z" fill="black"/>
<path d="M646.425 176.18H688.636V198.062H646.425V176.18Z" fill="black"/>
<path d="M666.501 162.421H688.635V176.18H666.501V162.421Z" fill="black"/>
<path d="M720.369 175.275H761.385V197.158H720.369V175.275Z" fill="black"/>
<path d="M525.334 136.144H542.58V142.606H525.334V136.144Z" fill="black"/>
<path d="M588.429 192.744H598.388V191.34H588.429V192.744ZM527.072 180.739V182.525H529.114V180.41H527.072V180.739ZM527.072 161.97V163.803H529.114V161.688H527.072V161.97ZM524.713 147.726V148.233H526.75V146.118H524.713V147.726ZM526.968 140.6H541.295V137.486H526.968V140.6ZM547.441 171.717H554.126V164.783H547.441V171.717ZM547.441 131.64H554.126V124.699H547.441V131.64ZM547.441 111.599H554.126V104.659H547.441V111.599ZM547.441 121.619H554.126V114.678H547.441V121.619ZM547.441 141.661H554.126V134.721H547.441V141.661ZM547.441 161.695H554.126V154.762H547.441V161.695ZM547.441 151.681H554.126V144.742H547.441V151.681ZM557.066 111.599H563.746V104.659H557.066V111.599ZM557.066 121.619H563.746V114.678H557.066V121.619ZM557.066 131.64H563.746V124.699H557.066V131.64ZM557.066 141.661H563.746V134.721H557.066V141.661ZM557.066 151.681H563.746V144.742H557.066V151.681ZM557.066 171.717H563.751V164.783H557.066V171.717ZM557.066 161.695H563.746V154.762H557.066V161.695ZM576.316 111.599H582.996V104.659H576.316V111.599ZM576.316 171.717H582.996V164.783H576.316V171.717ZM576.316 161.695H582.996V154.762H576.316V161.695ZM576.316 151.681H582.996V144.742H576.316V151.681ZM576.316 141.661H582.996V134.721H576.316V141.661ZM576.316 121.619H582.996V114.678H576.316V121.619ZM576.316 131.64H582.996V124.699H576.316V131.64ZM566.691 171.717H573.371V164.783H566.691V171.717ZM566.691 161.695H573.371V154.762H566.691V161.695ZM566.691 151.681H573.371V144.742H566.691V151.681ZM566.691 141.661H573.371V134.721H566.691V141.661ZM566.691 131.64H573.371V124.699H566.691V131.64ZM566.691 111.599H573.371V104.659H566.691V111.599ZM566.691 121.619H573.371V114.678H566.691V121.619ZM542.015 154.474H542.643V152.359H540.599V154.474H542.015ZM539.58 164.297H541.624V162.182H539.58V164.297ZM539.101 176.597H541.14V174.482H539.101V176.597ZM530.243 171.436H532.28V169.321H530.243V171.436ZM531.261 155.536H533.298V153.421H531.261V155.536ZM630.149 166.98H635.883V161.026H630.149V166.98ZM651.469 181.67H686.578V180.704H651.469V181.67ZM669.079 170.381H687.604V168.657H669.079V170.381ZM669.079 164.147H687.604V162.421H669.079V164.147ZM723.17 181.67H758.238V180.704H723.17V181.67ZM723.17 192.744H758.231V191.771H723.17V192.744ZM713.969 159.519H717.325V155.988H713.969V159.519ZM713.969 173.099H717.325V169.568H713.969V173.099ZM711.645 185.12H715.001V181.587H711.645V185.12ZM706.033 166.309H709.389V162.778H706.033V166.309ZM697.16 160.56H700.517V157.027H697.16V160.56ZM698.438 191.279H701.794V187.753H698.438V191.279ZM697.16 179.63H700.517V176.097H697.16V179.63ZM723.17 187.261H758.231V186.187H723.17V187.261ZM651.469 192.744H686.578V191.451H657.307V187.584H686.578V186.187H651.469V192.744ZM609.394 175.044H615.13V169.088H609.394V175.044ZM609.394 151.497H615.13V145.548H609.394V151.497ZM618.35 158.596H624.085V152.64H618.35V158.596ZM627.284 181.82H633.019V175.864H627.284V181.82ZM363.899 192.744H367.126V191.587H363.899V192.744ZM182.879 181.095V192.744H188.786V124.904C185.382 123.206 181.861 121.661 178.231 120.278V122.146H159.467C159.535 123.022 159.589 123.892 159.645 124.761H179.161V136.513H160.076C160.076 137.295 160.075 138.075 160.061 138.847H180.09V150.887H159.521C159.488 151.313 159.467 151.751 159.432 152.175C159.412 152.427 159.384 152.675 159.363 152.927H181.019V165.256H158.093C158.018 165.845 157.949 166.439 157.867 167.013H181.95V179.63H155.863C155.776 180.129 155.68 180.615 155.583 181.095H182.879ZM110.357 150.169V192.744H117.495V181.095H145.111C145.022 180.615 144.926 180.129 144.831 179.63H118.424V167.013H142.828C142.745 166.439 142.677 165.845 142.609 165.256H119.354V152.927H141.332C141.311 152.675 141.29 152.427 141.27 152.175C141.235 151.751 141.207 151.313 141.174 150.887H120.283V138.847H140.633C140.626 138.075 140.619 137.295 140.619 136.513H121.214V124.761H141.052C141.106 123.892 141.16 123.022 141.228 122.146H122.143V113.057C82.3643 117.054 49.2111 139.697 35.164 170.381H53.6822V168.657H52.1843V164.147H53.6822V162.421H52.1843V157.91H74.7835V150.169H81.6276V144.165H102.832V150.169H110.357ZM38.657 181.67H73.758V180.704H38.657V181.67ZM98.8264 185.12H102.19V181.587H98.8264V185.12ZM101.15 173.099H104.507V169.568H101.15V173.099ZM92.3795 166.309H95.7359V162.778H92.3795V166.309ZM84.3401 179.63H87.6965V176.097H84.3401V179.63ZM84.3401 160.56H87.6965V157.027H84.3401V160.56ZM38.657 192.744H73.758V191.771H38.657V192.744ZM38.657 187.261H73.758V186.187H38.657V187.261ZM56.2582 164.147H74.7835V162.421H56.2582V164.147ZM56.2582 170.381H74.7835V168.657H56.2582V170.381ZM211.063 136.349C211.959 137.095 212.841 137.848 213.709 138.614H217.399V133.611H211.063V136.349ZM217.987 106.731H224.326V101.406H217.987V106.731ZM226.582 142.071V152.47C229.863 156.782 232.74 161.34 235.167 166.097H236.192V142.071H226.582ZM240.219 175.544H245.044V170.381H240.219V175.544ZM240.219 162.319H245.044V157.159H240.219V162.319ZM240.219 149.417H245.044V144.255H240.219V149.417ZM261.149 165.699H265.982V160.546H261.149V165.699ZM269.687 173.106H279.408V157.802H269.687V173.106ZM284.235 97.5933H290.571V91.8651H284.235V97.5933ZM291.59 97.5933H297.926V91.8651H291.59V97.5933ZM298.945 97.5933H305.281V91.8651H298.945V97.5933ZM306.3 97.5933H312.637V91.8651H306.3V97.5933ZM313.655 97.5933H319.992V91.8651H313.655V97.5933ZM284.235 162.894H290.571V157.637H284.235V162.894ZM284.235 155.063H290.571V149.561H284.235V155.063ZM284.235 148.466H290.571V135.138H284.235V148.466ZM284.235 105.198H290.571V100.174H284.235V105.198ZM291.59 105.198H297.926V100.174H291.59V105.198ZM298.945 105.198H305.281V100.174H298.945V105.198ZM306.3 105.198H312.637V100.174H306.3V105.198ZM313.655 105.198H319.992V100.174H313.655V105.198ZM313.655 191.745H319.992V186.262H313.655V191.745ZM306.3 191.745H312.637V186.262H306.3V191.745ZM298.945 191.745H305.281V186.262H298.945V191.745ZM291.59 191.745H297.926V186.262H291.59V191.745ZM284.235 191.745H290.571V186.262H284.235V191.745ZM284.235 183.674H290.571V178.41H284.235V183.674ZM284.235 177.315H290.571V163.982H284.235V177.315ZM291.59 162.894H297.926V157.637H291.59V162.894ZM291.59 155.063H297.926V149.561H291.59V155.063ZM291.59 148.466H297.926V135.138H291.59V148.466ZM291.59 134.043H297.926V120.716H291.59V134.043ZM291.59 119.621H297.926V106.286H291.59V119.621ZM298.945 155.063H305.281V149.561H298.945V155.063ZM298.945 134.043H305.281V120.716H298.945V134.043ZM298.945 119.621H305.281V106.286H298.945V119.621ZM306.3 155.063H312.637V149.561H306.3V155.063ZM306.3 148.466H312.637V135.138H306.3V148.466ZM306.3 134.043H312.637V120.716H306.3V134.043ZM306.3 119.621H312.637V106.286H306.3V119.621ZM313.655 162.894H319.992V157.637H313.655V162.894ZM313.655 177.315H319.992V163.982H313.655V177.315ZM313.655 183.674H319.992V178.41H313.655V183.674ZM306.3 183.674H312.637V178.41H306.3V183.674ZM298.945 183.674H305.281V178.41H298.945V183.674ZM291.59 177.315H297.926V163.982H291.59V177.315ZM291.59 183.674H297.926V178.41H291.59V183.674ZM298.945 162.894H305.281V157.637H298.945V162.894ZM306.3 177.315H312.637V163.982H306.3V177.315ZM306.3 162.894H312.637V157.637H306.3V162.894ZM313.655 155.063H319.992V149.561H313.655V155.063ZM313.655 148.466H319.992V135.138H313.655V148.466ZM313.655 134.043H319.992V120.716H313.655V134.043ZM284.235 119.621H290.571V106.286H284.235V119.621ZM269.687 192.744H279.244V176.98H269.687V192.744ZM246.657 182.313H251.491V177.152H246.657V182.313ZM246.657 169.088H251.491V163.928H246.657V169.088ZM246.657 156.186H251.491V151.026H246.657V156.186ZM257.773 156.186H262.605V151.026H257.773V156.186ZM257.773 175.544H262.605V170.381H257.773V175.544ZM252.618 149.417H257.451V144.255H252.618V149.417ZM253.904 188.439H258.737V183.285H253.904V188.439ZM195.122 156.747H201.452V151.565H195.122V156.747ZM194.37 183.353H200.701V178.841H194.37V183.353ZM194.37 175.612H200.701V170.026H194.37V175.612ZM195.122 148.341H201.452V143.414H195.122V148.341ZM211.063 130.387H217.399V125.288H211.063V130.387ZM217.987 114.739H224.326V109.963H217.987V114.739ZM232.274 166.097C230.58 162.908 228.68 159.813 226.582 156.822V166.097H232.274ZM233.574 168.678H227.866V182.162H236.192V174.646C235.4 172.628 234.525 170.635 233.574 168.678ZM214.235 173.735H220.565V168.999H214.235V173.735ZM214.235 165.775H220.565V160.402H214.235V165.775ZM227.866 187.713H236.192V186.036H227.866V187.713ZM227.866 192.744H236.192V191.587H227.866V192.744ZM328.435 150.532H334.17V144.577H328.435V150.532ZM351.745 166.98H357.48V161.026H351.745V166.98ZM330.999 175.044H336.727V169.088H330.999V175.044ZM339.947 158.596H345.681V152.64H339.947V158.596ZM348.88 181.82H354.617V175.864H348.88V181.82ZM363.899 187.713H367.126V186.036H363.899V187.713ZM371.418 181.834H380.114V172.798H371.418V181.834ZM371.418 168.787H380.114V159.759H371.418V168.787ZM371.418 155.748H380.114V146.713H371.418V155.748ZM371.418 129.662H380.114V120.634H371.418V129.662ZM371.418 103.576H380.114V94.5479H371.418V103.576ZM371.418 90.5299H380.114V81.5021H371.418V90.5299ZM371.418 64.4507H380.114V55.4159H371.418V64.4507ZM383.948 168.787H392.644V159.759H383.948V168.787ZM383.948 142.708H392.644V133.673H383.948V142.708ZM383.948 116.623H392.644V107.587H383.948V116.623ZM383.948 90.5299H392.644V81.5021H383.948V90.5299ZM383.948 77.4912H392.644V68.4616H383.948V77.4912ZM383.948 64.4507H392.644V55.4159H383.948V64.4507ZM396.473 181.834H405.167V172.798H396.473V181.834ZM396.473 168.787H405.167V159.759H396.473V168.787ZM396.473 155.748H405.167V146.713H396.473V155.748ZM396.473 142.708H405.167V133.673H396.473V142.708ZM396.473 129.662H405.167V120.634H396.473V129.662ZM396.473 116.623H405.167V107.587H396.473V116.623ZM396.473 103.576H405.167V94.5479H396.473V103.576ZM396.473 90.5299H405.167V81.5021H396.473V90.5299ZM409.003 181.834H417.698V172.798H409.003V181.834ZM409.003 155.748H417.698V146.713H409.003V155.748ZM409.003 142.708H417.698V133.673H409.003V142.708ZM409.003 116.623H417.698V107.587H409.003V116.623ZM409.003 103.576H417.698V94.5479H409.003V103.576ZM409.003 77.4912H417.698V68.4616H409.003V77.4912ZM409.003 64.4507H417.698V55.4159H409.003V64.4507ZM423.303 163.078H433.072V151.099H423.303V163.078ZM438.717 178.123H450.181V171.738H438.717V178.123ZM438.717 113.55H450.181V107.163H438.717V113.55ZM438.717 104.322H450.181V97.9368H438.717V104.322ZM438.717 131.996H450.181V125.611H438.717V131.996ZM455.233 187.35H466.697V180.963H455.233V187.35ZM455.233 178.123H466.697V171.738H455.233V178.123ZM455.233 159.677H466.697V153.284H455.233V159.677ZM455.233 141.223H466.697V134.836H455.233V141.223ZM455.233 131.996H466.697V125.611H455.233V131.996ZM455.233 113.55H466.697V107.163H455.233V113.55ZM471.748 187.35H483.219V180.963H471.748V187.35ZM471.748 168.897H483.219V162.51H471.748V168.897ZM471.748 150.449H483.219V144.064H471.748V150.449ZM471.748 141.223H483.219V134.836H471.748V141.223ZM471.748 131.996H483.219V125.611H471.748V131.996ZM471.748 113.55H483.219V107.163H471.748V113.55ZM471.748 104.322H483.219V97.9368H471.748V104.322ZM488.264 187.35H499.734V180.963H488.264V187.35ZM488.264 168.897H499.734V162.51H488.264V168.897ZM488.264 150.449H499.734V144.064H488.264V150.449ZM488.264 141.223H499.734V134.836H488.264V141.223ZM488.264 122.768H499.734V116.383H488.264V122.768ZM488.264 104.322H499.734V97.9368H488.264V104.322ZM438.717 141.223H450.181V134.836H438.717V141.223ZM438.717 159.677H450.181V153.284H438.717V159.677ZM423.303 192.744H433.072V168.24H423.303V192.744ZM146.581 41.282C146.581 41.9864 147.148 42.5472 147.845 42.5472C148.543 42.5472 149.117 41.9864 149.117 41.282C149.117 40.5828 148.543 40.0151 147.845 40.0151C147.148 40.0151 146.581 40.5828 146.581 41.282ZM137.305 41.282C137.305 40.5828 136.738 40.0151 136.033 40.0151C135.336 40.0151 134.769 40.5828 134.769 41.282C134.769 41.9864 135.336 42.5472 136.033 42.5472C136.738 42.5472 137.305 41.9864 137.305 41.282ZM156.458 41.282C156.458 41.9864 157.025 42.5472 157.724 42.5472C158.427 42.5472 158.989 41.9864 158.989 41.282C158.989 40.5828 158.427 40.0151 157.724 40.0151C157.025 40.0151 156.458 40.5828 156.458 41.282ZM160.998 41.282C160.998 41.9864 161.565 42.5472 162.263 42.5472C162.959 42.5472 163.526 41.9864 163.526 41.282C163.526 40.5828 162.959 40.0151 162.263 40.0151C161.565 40.0151 160.998 40.5828 160.998 41.282ZM781.002 192.744V225.003H0V192.744H15.6745V170.381H18.2522V192.744H26.0519C26.5506 188.931 27.3224 185.181 28.3409 181.512V170.381H32.3395C47.9406 135.048 87.9713 109.847 134.769 109.847C137.265 109.847 139.732 109.921 142.179 110.059C142.233 109.299 142.289 108.538 142.343 107.779H123.079V96.5945H142.999C143.046 95.5274 143.101 94.4655 143.15 93.4054H124.009V82.5149H143.703C143.738 81.8719 143.764 81.2218 143.799 80.5839C143.827 80.0635 143.853 79.5501 143.881 79.0367H124.939V68.4283H144.488C144.564 67.1614 144.639 65.9086 144.714 64.6627H125.869V54.3418H145.377C145.474 52.8628 145.57 51.4049 145.664 49.9611C133.196 49.2286 123.722 45.6207 123.722 41.282C123.722 36.8049 133.805 33.1094 146.854 32.5469C146.895 32.0194 146.93 31.4727 146.97 30.9593C147.285 26.3123 147.633 22.0542 147.913 18.2833C148.202 14.5106 148.461 11.2181 148.687 8.51434C149.15 3.09453 149.418 0 149.418 0H151.284C151.284 0 151.544 3.09453 152.008 8.51434C152.241 11.2181 152.502 14.5106 152.782 18.2833C153.062 22.0542 153.41 26.3123 153.732 30.9593C153.765 31.4727 153.807 32.0194 153.84 32.5469C166.897 33.1094 176.973 36.8049 176.973 41.282C176.973 45.6207 167.506 49.2286 155.037 49.9611C155.127 51.4049 155.221 52.8628 155.317 54.3418H174.506V64.6627H155.988C156.063 65.9086 156.138 67.1614 156.213 68.4283H175.435V79.0367H156.814C156.842 79.5501 156.87 80.0635 156.896 80.5839C156.931 81.2218 156.957 81.8719 156.999 82.5149H176.364V93.4054H157.545C157.601 94.4655 157.648 95.5274 157.703 96.5945H177.294V107.779H158.352C158.42 108.745 158.495 109.716 158.571 110.681H178.231V117.533C181.854 118.875 185.375 120.373 188.786 122.038V98.6692H197.194V95.445H188.786V91.2343H193.297V85.8688H198.232V73.0491H203.277V56.7704H212.944V73.0491H217.987V85.8688H222.287V91.2343H226.582V140.785H236.192V136.193H242.631V128.772H262.605V136.193H269.687V156.514H279.408V87.8874H285.034V89.8185H320.067V87.8874H324.928V137.877H328.435V130.463H354.617V137.877H363.899V182.162H367.126V44.3485H370.134V34.2378H373.135V29.5084H391.604V34.2378H397.621V29.5084H416.085V34.2378H417.807V44.3485H421.238V145.939H433.481V92.2681H437.447V85.1223H441.41V81.7755H464.058V85.1223H473.683V81.7755H496.337V85.1223H498.6V92.2681H503.132V170.381H505.708V192.744H507.425V170.381H510.002V192.744H519.237V191.505H517.09V186.995H519.237V185.249H515.483V180.739H519.237V178.999H513.884V174.482H519.237V172.743H512.277V168.226H519.237V166.488H510.678V161.97H519.237V160.23H509.071V155.72H519.237V153.975H507.472V149.464H519.237V147.726H505.865V143.209H519.237V141.428H522.457V132.968H542.015V94.6583H547.182V88.0995H552.117V84.2322H579.392V88.0995H583.473V94.6583H588.429V146.118H594.82V186.187H598.388V184.571H605.532V181.99H598.388V178.794H605.532V176.213H598.388V173.024H605.532V170.444H598.388V167.247H605.532V164.667H598.388V161.469H605.532V158.89H598.388V155.699H605.532V153.12H598.388V149.923H605.532V147.342H598.388V144.146H605.532V141.565H598.388V137.877H606.839V130.463H633.019V137.877H642.302V170.381H666.501V168.657H664.998V164.147H666.501V162.421H664.998V157.91H687.604V150.169H694.439V144.165H715.644V150.169H723.17V170.381H768.54V192.744H781.002ZM291.002 83.8554H314.619V78.9613H291.002V83.8554ZM318.38 87.8874H286.655V83.8554H291.002V85.0943H314.619V83.8554H318.38V87.8874Z" fill="#E9ECEF"/>
</g>
<g clip-path="url(#clip1_173_347)">
<path d="M792.096 176.33H834.156V197.461H792.096V176.33Z" fill="black"/>
<path d="M811.557 160.143H839.098V172.279H811.557V160.143Z" fill="black"/>
<path d="M947.919 100.339H982.201V185.77H947.919V100.339Z" fill="black"/>
<path d="M1038.04 90.7419H1079.34V197.459H1038.04V90.7419Z" fill="black"/>
<path d="M1125.9 49.8245H1176.5V186.222H1125.9V49.8245Z" fill="black"/>
<path d="M1193.41 95.5396H1257.92V196.411H1193.41V95.5396Z" fill="black"/>
<path d="M1301.48 101.086H1343.25V180.376H1301.48V101.086Z" fill="black"/>
<path d="M1403.43 176.18H1445.64V198.062H1403.43V176.18Z" fill="black"/>
<path d="M1423.5 162.421H1445.63V176.18H1423.5V162.421Z" fill="black"/>
<path d="M1477.37 175.275H1518.38V197.158H1477.37V175.275Z" fill="black"/>
<path d="M1282.33 136.144H1299.58V142.606H1282.33V136.144Z" fill="black"/>
<path d="M1345.43 192.744H1355.39V191.34H1345.43V192.744ZM1284.07 180.739V182.525H1286.11V180.41H1284.07V180.739ZM1284.07 161.97V163.803H1286.11V161.688H1284.07V161.97ZM1281.71 147.726V148.233H1283.75V146.118H1281.71V147.726ZM1283.97 140.6H1298.3V137.486H1283.97V140.6ZM1304.44 171.717H1311.13V164.783H1304.44V171.717ZM1304.44 131.64H1311.13V124.699H1304.44V131.64ZM1304.44 111.599H1311.13V104.659H1304.44V111.599ZM1304.44 121.619H1311.13V114.678H1304.44V121.619ZM1304.44 141.661H1311.13V134.721H1304.44V141.661ZM1304.44 161.695H1311.13V154.762H1304.44V161.695ZM1304.44 151.681H1311.13V144.742H1304.44V151.681ZM1314.07 111.599H1320.75V104.659H1314.07V111.599ZM1314.07 121.619H1320.75V114.678H1314.07V121.619ZM1314.07 131.64H1320.75V124.699H1314.07V131.64ZM1314.07 141.661H1320.75V134.721H1314.07V141.661ZM1314.07 151.681H1320.75V144.742H1314.07V151.681ZM1314.07 171.717H1320.75V164.783H1314.07V171.717ZM1314.07 161.695H1320.75V154.762H1314.07V161.695ZM1333.32 111.599H1340V104.659H1333.32V111.599ZM1333.32 171.717H1340V164.783H1333.32V171.717ZM1333.32 161.695H1340V154.762H1333.32V161.695ZM1333.32 151.681H1340V144.742H1333.32V151.681ZM1333.32 141.661H1340V134.721H1333.32V141.661ZM1333.32 121.619H1340V114.678H1333.32V121.619ZM1333.32 131.64H1340V124.699H1333.32V131.64ZM1323.69 171.717H1330.37V164.783H1323.69V171.717ZM1323.69 161.695H1330.37V154.762H1323.69V161.695ZM1323.69 151.681H1330.37V144.742H1323.69V151.681ZM1323.69 141.661H1330.37V134.721H1323.69V141.661ZM1323.69 131.64H1330.37V124.699H1323.69V131.64ZM1323.69 111.599H1330.37V104.659H1323.69V111.599ZM1323.69 121.619H1330.37V114.678H1323.69V121.619ZM1299.01 154.474H1299.64V152.359H1297.6V154.474H1299.01ZM1296.58 164.297H1298.62V162.182H1296.58V164.297ZM1296.1 176.597H1298.14V174.482H1296.1V176.597ZM1287.24 171.436H1289.28V169.321H1287.24V171.436ZM1288.26 155.536H1290.3V153.421H1288.26V155.536ZM1387.15 166.98H1392.88V161.026H1387.15V166.98ZM1408.47 181.67H1443.58V180.704H1408.47V181.67ZM1426.08 170.381H1444.6V168.657H1426.08V170.381ZM1426.08 164.147H1444.6V162.421H1426.08V164.147ZM1480.17 181.67H1515.24V180.704H1480.17V181.67ZM1480.17 192.744H1515.23V191.771H1480.17V192.744ZM1470.97 159.519H1474.33V155.988H1470.97V159.519ZM1470.97 173.099H1474.33V169.568H1470.97V173.099ZM1468.65 185.12H1472V181.587H1468.65V185.12ZM1463.03 166.309H1466.39V162.778H1463.03V166.309ZM1454.16 160.56H1457.52V157.027H1454.16V160.56ZM1455.44 191.279H1458.79V187.753H1455.44V191.279ZM1454.16 179.63H1457.52V176.097H1454.16V179.63ZM1480.17 187.261H1515.23V186.187H1480.17V187.261ZM1408.47 192.744H1443.58V191.451H1414.31V187.584H1443.58V186.187H1408.47V192.744ZM1366.39 175.044H1372.13V169.088H1366.39V175.044ZM1366.39 151.497H1372.13V145.548H1366.39V151.497ZM1375.35 158.596H1381.08V152.64H1375.35V158.596ZM1384.28 181.82H1390.02V175.864H1384.28V181.82ZM1120.9 192.744H1124.13V191.587H1120.9V192.744ZM939.879 181.095V192.744H945.786V124.904C942.382 123.206 938.861 121.661 935.231 120.278V122.146H916.467C916.535 123.022 916.589 123.892 916.645 124.761H936.161V136.513H917.076C917.076 137.295 917.075 138.075 917.061 138.847H937.09V150.887H916.521C916.488 151.313 916.467 151.751 916.432 152.175C916.412 152.427 916.384 152.675 916.363 152.927H938.019V165.256H915.093C915.018 165.845 914.949 166.439 914.867 167.013H938.95V179.63H912.863C912.776 180.129 912.68 180.615 912.583 181.095H939.879ZM867.357 150.169V192.744H874.495V181.095H902.111C902.022 180.615 901.926 180.129 901.831 179.63H875.424V167.013H899.828C899.745 166.439 899.677 165.845 899.609 165.256H876.354V152.927H898.332C898.311 152.675 898.29 152.427 898.27 152.175C898.235 151.751 898.207 151.313 898.174 150.887H877.283V138.847H897.633C897.626 138.075 897.619 137.295 897.619 136.513H878.214V124.761H898.052C898.106 123.892 898.16 123.022 898.228 122.146H879.143V113.057C839.364 117.054 806.211 139.697 792.164 170.381H810.682V168.657H809.184V164.147H810.682V162.421H809.184V157.91H831.783V150.169H838.628V144.165H859.832V150.169H867.357ZM795.657 181.67H830.758V180.704H795.657V181.67ZM855.826 185.12H859.19V181.587H855.826V185.12ZM858.15 173.099H861.507V169.568H858.15V173.099ZM849.379 166.309H852.736V162.778H849.379V166.309ZM841.34 179.63H844.697V176.097H841.34V179.63ZM841.34 160.56H844.697V157.027H841.34V160.56ZM795.657 192.744H830.758V191.771H795.657V192.744ZM795.657 187.261H830.758V186.187H795.657V187.261ZM813.258 164.147H831.783V162.421H813.258V164.147ZM813.258 170.381H831.783V168.657H813.258V170.381ZM968.063 136.349C968.959 137.095 969.841 137.848 970.709 138.614H974.399V133.611H968.063V136.349ZM974.987 106.731H981.326V101.406H974.987V106.731ZM983.582 142.071V152.47C986.863 156.782 989.74 161.34 992.167 166.097H993.192V142.071H983.582ZM997.219 175.544H1002.04V170.381H997.219V175.544ZM997.219 162.319H1002.04V157.159H997.219V162.319ZM997.219 149.417H1002.04V144.255H997.219V149.417ZM1018.15 165.699H1022.98V160.546H1018.15V165.699ZM1026.69 173.106H1036.41V157.802H1026.69V173.106ZM1041.23 97.5933H1047.57V91.8651H1041.23V97.5933ZM1048.59 97.5933H1054.93V91.8651H1048.59V97.5933ZM1055.94 97.5933H1062.28V91.8651H1055.94V97.5933ZM1063.3 97.5933H1069.64V91.8651H1063.3V97.5933ZM1070.66 97.5933H1076.99V91.8651H1070.66V97.5933ZM1041.23 162.894H1047.57V157.637H1041.23V162.894ZM1041.23 155.063H1047.57V149.561H1041.23V155.063ZM1041.23 148.466H1047.57V135.138H1041.23V148.466ZM1041.23 105.198H1047.57V100.174H1041.23V105.198ZM1048.59 105.198H1054.93V100.174H1048.59V105.198ZM1055.94 105.198H1062.28V100.174H1055.94V105.198ZM1063.3 105.198H1069.64V100.174H1063.3V105.198ZM1070.66 105.198H1076.99V100.174H1070.66V105.198ZM1070.66 191.745H1076.99V186.262H1070.66V191.745ZM1063.3 191.745H1069.64V186.262H1063.3V191.745ZM1055.94 191.745H1062.28V186.262H1055.94V191.745ZM1048.59 191.745H1054.93V186.262H1048.59V191.745ZM1041.23 191.745H1047.57V186.262H1041.23V191.745ZM1041.23 183.674H1047.57V178.41H1041.23V183.674ZM1041.23 177.315H1047.57V163.982H1041.23V177.315ZM1048.59 162.894H1054.93V157.637H1048.59V162.894ZM1048.59 155.063H1054.93V149.561H1048.59V155.063ZM1048.59 148.466H1054.93V135.138H1048.59V148.466ZM1048.59 134.043H1054.93V120.716H1048.59V134.043ZM1048.59 119.621H1054.93V106.286H1048.59V119.621ZM1055.94 155.063H1062.28V149.561H1055.94V155.063ZM1055.94 134.043H1062.28V120.716H1055.94V134.043ZM1055.94 119.621H1062.28V106.286H1055.94V119.621ZM1063.3 155.063H1069.64V149.561H1063.3V155.063ZM1063.3 148.466H1069.64V135.138H1063.3V148.466ZM1063.3 134.043H1069.64V120.716H1063.3V134.043ZM1063.3 119.621H1069.64V106.286H1063.3V119.621ZM1070.66 162.894H1076.99V157.637H1070.66V162.894ZM1070.66 177.315H1076.99V163.982H1070.66V177.315ZM1070.66 183.674H1076.99V178.41H1070.66V183.674ZM1063.3 183.674H1069.64V178.41H1063.3V183.674ZM1055.94 183.674H1062.28V178.41H1055.94V183.674ZM1048.59 177.315H1054.93V163.982H1048.59V177.315ZM1048.59 183.674H1054.93V178.41H1048.59V183.674ZM1055.94 162.894H1062.28V157.637H1055.94V162.894ZM1063.3 177.315H1069.64V163.982H1063.3V177.315ZM1063.3 162.894H1069.64V157.637H1063.3V162.894ZM1070.66 155.063H1076.99V149.561H1070.66V155.063ZM1070.66 148.466H1076.99V135.138H1070.66V148.466ZM1070.66 134.043H1076.99V120.716H1070.66V134.043ZM1041.23 119.621H1047.57V106.286H1041.23V119.621ZM1026.69 192.744H1036.24V176.98H1026.69V192.744ZM1003.66 182.313H1008.49V177.152H1003.66V182.313ZM1003.66 169.088H1008.49V163.928H1003.66V169.088ZM1003.66 156.186H1008.49V151.026H1003.66V156.186ZM1014.77 156.186H1019.6V151.026H1014.77V156.186ZM1014.77 175.544H1019.6V170.381H1014.77V175.544ZM1009.62 149.417H1014.45V144.255H1009.62V149.417ZM1010.9 188.439H1015.74V183.285H1010.9V188.439ZM952.122 156.747H958.452V151.565H952.122V156.747ZM951.37 183.353H957.701V178.841H951.37V183.353ZM951.37 175.612H957.701V170.026H951.37V175.612ZM952.122 148.341H958.452V143.414H952.122V148.341ZM968.063 130.387H974.399V125.288H968.063V130.387ZM974.987 114.739H981.326V109.963H974.987V114.739ZM989.274 166.097C987.58 162.908 985.68 159.813 983.582 156.822V166.097H989.274ZM990.574 168.678H984.866V182.162H993.192V174.646C992.4 172.628 991.525 170.635 990.574 168.678ZM971.235 173.735H977.565V168.999H971.235V173.735ZM971.235 165.775H977.565V160.402H971.235V165.775ZM984.866 187.713H993.192V186.036H984.866V187.713ZM984.866 192.744H993.192V191.587H984.866V192.744ZM1085.44 150.532H1091.17V144.577H1085.44V150.532ZM1108.75 166.98H1114.48V161.026H1108.75V166.98ZM1088 175.044H1093.73V169.088H1088V175.044ZM1096.95 158.596H1102.68V152.64H1096.95V158.596ZM1105.88 181.82H1111.62V175.864H1105.88V181.82ZM1120.9 187.713H1124.13V186.036H1120.9V187.713ZM1128.42 181.834H1137.11V172.798H1128.42V181.834ZM1128.42 168.787H1137.11V159.759H1128.42V168.787ZM1128.42 155.748H1137.11V146.713H1128.42V155.748ZM1128.42 129.662H1137.11V120.634H1128.42V129.662ZM1128.42 103.576H1137.11V94.5479H1128.42V103.576ZM1128.42 90.5299H1137.11V81.5021H1128.42V90.5299ZM1128.42 64.4507H1137.11V55.4159H1128.42V64.4507ZM1140.95 168.787H1149.64V159.759H1140.95V168.787ZM1140.95 142.708H1149.64V133.673H1140.95V142.708ZM1140.95 116.623H1149.64V107.587H1140.95V116.623ZM1140.95 90.5299H1149.64V81.5021H1140.95V90.5299ZM1140.95 77.4912H1149.64V68.4616H1140.95V77.4912ZM1140.95 64.4507H1149.64V55.4159H1140.95V64.4507ZM1153.47 181.834H1162.17V172.798H1153.47V181.834ZM1153.47 168.787H1162.17V159.759H1153.47V168.787ZM1153.47 155.748H1162.17V146.713H1153.47V155.748ZM1153.47 142.708H1162.17V133.673H1153.47V142.708ZM1153.47 129.662H1162.17V120.634H1153.47V129.662ZM1153.47 116.623H1162.17V107.587H1153.47V116.623ZM1153.47 103.576H1162.17V94.5479H1153.47V103.576ZM1153.47 90.5299H1162.17V81.5021H1153.47V90.5299ZM1166 181.834H1174.7V172.798H1166V181.834ZM1166 155.748H1174.7V146.713H1166V155.748ZM1166 142.708H1174.7V133.673H1166V142.708ZM1166 116.623H1174.7V107.587H1166V116.623ZM1166 103.576H1174.7V94.5479H1166V103.576ZM1166 77.4912H1174.7V68.4616H1166V77.4912ZM1166 64.4507H1174.7V55.4159H1166V64.4507ZM1180.3 163.078H1190.07V151.099H1180.3V163.078ZM1195.72 178.123H1207.18V171.738H1195.72V178.123ZM1195.72 113.55H1207.18V107.163H1195.72V113.55ZM1195.72 104.322H1207.18V97.9368H1195.72V104.322ZM1195.72 131.996H1207.18V125.611H1195.72V131.996ZM1212.23 187.35H1223.7V180.963H1212.23V187.35ZM1212.23 178.123H1223.7V171.738H1212.23V178.123ZM1212.23 159.677H1223.7V153.284H1212.23V159.677ZM1212.23 141.223H1223.7V134.836H1212.23V141.223ZM1212.23 131.996H1223.7V125.611H1212.23V131.996ZM1212.23 113.55H1223.7V107.163H1212.23V113.55ZM1228.75 187.35H1240.22V180.963H1228.75V187.35ZM1228.75 168.897H1240.22V162.51H1228.75V168.897ZM1228.75 150.449H1240.22V144.064H1228.75V150.449ZM1228.75 141.223H1240.22V134.836H1228.75V141.223ZM1228.75 131.996H1240.22V125.611H1228.75V131.996ZM1228.75 113.55H1240.22V107.163H1228.75V113.55ZM1228.75 104.322H1240.22V97.9368H1228.75V104.322ZM1245.26 187.35H1256.73V180.963H1245.26V187.35ZM1245.26 168.897H1256.73V162.51H1245.26V168.897ZM1245.26 150.449H1256.73V144.064H1245.26V150.449ZM1245.26 141.223H1256.73V134.836H1245.26V141.223ZM1245.26 122.768H1256.73V116.383H1245.26V122.768ZM1245.26 104.322H1256.73V97.9368H1245.26V104.322ZM1195.72 141.223H1207.18V134.836H1195.72V141.223ZM1195.72 159.677H1207.18V153.284H1195.72V159.677ZM1180.3 192.744H1190.07V168.24H1180.3V192.744ZM903.581 41.282C903.581 41.9864 904.148 42.5472 904.845 42.5472C905.543 42.5472 906.117 41.9864 906.117 41.282C906.117 40.5828 905.543 40.0151 904.845 40.0151C904.148 40.0151 903.581 40.5828 903.581 41.282ZM894.305 41.282C894.305 40.5828 893.738 40.0151 893.033 40.0151C892.336 40.0151 891.769 40.5828 891.769 41.282C891.769 41.9864 892.336 42.5472 893.033 42.5472C893.738 42.5472 894.305 41.9864 894.305 41.282ZM913.458 41.282C913.458 41.9864 914.025 42.5472 914.724 42.5472C915.427 42.5472 915.989 41.9864 915.989 41.282C915.989 40.5828 915.427 40.0151 914.724 40.0151C914.025 40.0151 913.458 40.5828 913.458 41.282ZM917.998 41.282C917.998 41.9864 918.565 42.5472 919.263 42.5472C919.959 42.5472 920.526 41.9864 920.526 41.282C920.526 40.5828 919.959 40.0151 919.263 40.0151C918.565 40.0151 917.998 40.5828 917.998 41.282ZM1538 192.744V225.003H757V192.744H772.675V170.381H775.252V192.744H783.052C783.551 188.931 784.322 185.181 785.341 181.512V170.381H789.34C804.941 135.048 844.971 109.847 891.769 109.847C894.265 109.847 896.732 109.921 899.179 110.059C899.233 109.299 899.289 108.538 899.343 107.779H880.079V96.5945H899.999C900.046 95.5274 900.101 94.4655 900.15 93.4054H881.009V82.5149H900.703C900.738 81.8719 900.764 81.2218 900.799 80.5839C900.827 80.0635 900.853 79.5501 900.881 79.0367H881.939V68.4283H901.488C901.564 67.1614 901.639 65.9086 901.714 64.6627H882.869V54.3418H902.377C902.474 52.8628 902.57 51.4049 902.664 49.9611C890.196 49.2286 880.722 45.6207 880.722 41.282C880.722 36.8049 890.805 33.1094 903.854 32.5469C903.895 32.0194 903.93 31.4727 903.97 30.9593C904.285 26.3123 904.633 22.0542 904.913 18.2833C905.202 14.5106 905.461 11.2181 905.687 8.51434C906.15 3.09453 906.418 0 906.418 0H908.284C908.284 0 908.544 3.09453 909.008 8.51434C909.241 11.2181 909.502 14.5106 909.782 18.2833C910.062 22.0542 910.41 26.3123 910.732 30.9593C910.765 31.4727 910.807 32.0194 910.84 32.5469C923.897 33.1094 933.973 36.8049 933.973 41.282C933.973 45.6207 924.506 49.2286 912.037 49.9611C912.127 51.4049 912.221 52.8628 912.317 54.3418H931.506V64.6627H912.988C913.063 65.9086 913.138 67.1614 913.213 68.4283H932.435V79.0367H913.814C913.842 79.5501 913.87 80.0635 913.896 80.5839C913.931 81.2218 913.957 81.8719 913.999 82.5149H933.364V93.4054H914.545C914.601 94.4655 914.648 95.5274 914.703 96.5945H934.294V107.779H915.352C915.42 108.745 915.495 109.716 915.571 110.681H935.231V117.533C938.854 118.875 942.375 120.373 945.786 122.038V98.6692H954.194V95.445H945.786V91.2343H950.297V85.8688H955.232V73.0491H960.277V56.7704H969.944V73.0491H974.987V85.8688H979.287V91.2343H983.582V140.785H993.192V136.193H999.631V128.772H1019.6V136.193H1026.69V156.514H1036.41V87.8874H1042.03V89.8185H1077.07V87.8874H1081.93V137.877H1085.44V130.463H1111.62V137.877H1120.9V182.162H1124.13V44.3485H1127.13V34.2378H1130.14V29.5084H1148.6V34.2378H1154.62V29.5084H1173.08V34.2378H1174.81V44.3485H1178.24V145.939H1190.48V92.2681H1194.45V85.1223H1198.41V81.7755H1221.06V85.1223H1230.68V81.7755H1253.34V85.1223H1255.6V92.2681H1260.13V170.381H1262.71V192.744H1264.42V170.381H1267V192.744H1276.24V191.505H1274.09V186.995H1276.24V185.249H1272.48V180.739H1276.24V178.999H1270.88V174.482H1276.24V172.743H1269.28V168.226H1276.24V166.488H1267.68V161.97H1276.24V160.23H1266.07V155.72H1276.24V153.975H1264.47V149.464H1276.24V147.726H1262.87V143.209H1276.24V141.428H1279.46V132.968H1299.01V94.6583H1304.18V88.0995H1309.12V84.2322H1336.39V88.0995H1340.47V94.6583H1345.43V146.118H1351.82V186.187H1355.39V184.571H1362.53V181.99H1355.39V178.794H1362.53V176.213H1355.39V173.024H1362.53V170.444H1355.39V167.247H1362.53V164.667H1355.39V161.469H1362.53V158.89H1355.39V155.699H1362.53V153.12H1355.39V149.923H1362.53V147.342H1355.39V144.146H1362.53V141.565H1355.39V137.877H1363.84V130.463H1390.02V137.877H1399.3V170.381H1423.5V168.657H1422V164.147H1423.5V162.421H1422V157.91H1444.6V150.169H1451.44V144.165H1472.64V150.169H1480.17V170.381H1525.54V192.744H1538ZM1048 83.8554H1071.62V78.9613H1048V83.8554ZM1075.38 87.8874H1043.65V83.8554H1048V85.0943H1071.62V83.8554H1075.38V87.8874Z" fill="#E9ECEF"/>
</g>
<defs>
<clipPath id="clip0_173_347">
<rect width="781" height="225" fill="white"/>
</clipPath>
<clipPath id="clip1_173_347">
<rect width="781" height="225" fill="white" transform="translate(757)"/>
</clipPath>
</defs>
</svg>
