<svg width="42" height="42" viewBox="0 0 42 42" fill="none" xmlns="http://www.w3.org/2000/svg">
<path d="M19.0946 0.770847C16.5646 1.02085 14.0696 1.75585 11.7896 2.91585C10.3846 3.63085 9.38961 4.27085 8.23961 5.19585C4.22961 8.42585 1.60461 12.8958 0.764609 17.9058C0.539609 19.2608 0.499609 19.9158 0.529609 21.6308C0.569609 23.8858 0.789609 25.3708 1.36961 27.2858C2.99461 32.7058 6.76461 37.2058 11.8146 39.7658C14.0246 40.8858 16.3896 41.5858 18.9146 41.8708C19.9896 41.9958 22.2896 41.9958 23.3646 41.8708C27.3296 41.4208 30.9646 39.9208 34.0396 37.4708C34.9896 36.7108 36.5696 35.1408 37.2796 34.2408C40.0546 30.7408 41.6146 26.5858 41.7946 22.2058C41.8296 21.3458 41.7546 19.7458 41.6396 18.7908C41.2296 15.4808 40.0096 12.2808 38.1246 9.55085C37.1546 8.14085 35.5946 6.45085 34.2896 5.38585C32.9646 4.30585 31.9696 3.65585 30.4646 2.89585C28.0996 1.69585 25.7546 1.02085 23.0946 0.765846C22.1496 0.670845 20.0446 0.675846 19.0946 0.770847ZM23.2896 4.91085C26.2946 5.33585 28.9696 6.45085 31.2646 8.23585C34.7296 10.9308 36.9496 14.7858 37.5396 19.1308C37.9646 22.2658 37.5196 25.2958 36.2096 28.2058C35.7046 29.3208 34.8696 30.6708 34.0346 31.7158C33.4596 32.4308 32.2346 33.6558 31.5396 34.2108C29.4846 35.8458 27.1096 36.9758 24.6146 37.5108C21.4896 38.1808 18.1196 37.9208 15.2146 36.7858C11.8646 35.4808 9.05961 33.1758 7.14961 30.1508C5.74461 27.9308 4.90461 25.4358 4.66461 22.7808C4.59461 22.0008 4.59461 20.2908 4.66461 19.6658C4.96461 16.9258 5.84961 14.4608 7.32961 12.2258C9.80461 8.49585 13.5796 5.96085 17.9646 5.09085C18.3646 5.01585 18.9396 4.92585 19.2396 4.89585C19.5446 4.86585 19.8596 4.83085 19.9396 4.82085C20.2996 4.77085 22.7696 4.84085 23.2896 4.91085Z" fill="#4C5359"/>
</svg>
