<svg width="41" height="41" viewBox="0 0 41 41" fill="none" xmlns="http://www.w3.org/2000/svg">
<mask id="mask0_114_504" style="mask-type:alpha" maskUnits="userSpaceOnUse" x="0" y="0" width="41" height="41">
<rect x="0.978027" y="0.590088" width="40" height="40" fill="#D9D9D9"/>
</mask>
<g mask="url(#mask0_114_504)">
<path d="M14.9781 28.9235L20.9781 22.9235L26.9781 28.9235L29.3114 26.5901L23.3114 20.5901L29.3114 14.5901L26.9781 12.2568L20.9781 18.2568L14.9781 12.2568L12.6447 14.5901L18.6447 20.5901L12.6447 26.5901L14.9781 28.9235ZM20.9781 37.2568C18.6725 37.2568 16.5058 36.8193 14.4781 35.9443C12.4503 35.0693 10.6864 33.8818 9.1864 32.3818C7.6864 30.8818 6.4989 29.1179 5.6239 27.0901C4.7489 25.0624 4.3114 22.8957 4.3114 20.5901C4.3114 18.2846 4.7489 16.1179 5.6239 14.0901C6.4989 12.0624 7.6864 10.2985 9.1864 8.79846C10.6864 7.29846 12.4503 6.11096 14.4781 5.23596C16.5058 4.36096 18.6725 3.92346 20.9781 3.92346C23.2836 3.92346 25.4503 4.36096 27.4781 5.23596C29.5058 6.11096 31.2697 7.29846 32.7697 8.79846C34.2697 10.2985 35.4572 12.0624 36.3322 14.0901C37.2072 16.1179 37.6447 18.2846 37.6447 20.5901C37.6447 22.8957 37.2072 25.0624 36.3322 27.0901C35.4572 29.1179 34.2697 30.8818 32.7697 32.3818C31.2697 33.8818 29.5058 35.0693 27.4781 35.9443C25.4503 36.8193 23.2836 37.2568 20.9781 37.2568Z" fill="#343A40"/>
</g>
</svg>
