<svg width="17" height="16" viewBox="0 0 17 16" fill="none" xmlns="http://www.w3.org/2000/svg">
<g clip-path="url(#clip0_34_586)">
<path d="M7.22004 7.23992C7.25337 7.01992 7.32671 6.82658 7.42004 6.65992C7.51337 6.49325 7.64671 6.35325 7.81337 6.24658C7.97337 6.14658 8.17337 6.09992 8.42004 6.09325C8.57337 6.09992 8.71337 6.12659 8.84004 6.17992C8.97337 6.23992 9.09337 6.31992 9.18671 6.41992C9.28004 6.51992 9.35337 6.63992 9.41337 6.77325C9.47337 6.90658 9.50004 7.05325 9.50671 7.19992H10.7C10.6867 6.88659 10.6267 6.59992 10.5134 6.33992C10.4 6.07992 10.2467 5.85325 10.0467 5.66659C9.84671 5.47992 9.60671 5.33325 9.32671 5.22659C9.04671 5.11992 8.74004 5.07325 8.40004 5.07325C7.96671 5.07325 7.58671 5.14658 7.26671 5.29992C6.94671 5.45325 6.68004 5.65325 6.46671 5.91325C6.25337 6.17325 6.09337 6.47325 5.99337 6.81992C5.89337 7.16658 5.83337 7.52658 5.83337 7.91325V8.09325C5.83337 8.47992 5.88671 8.83992 5.98671 9.18658C6.08671 9.53325 6.24671 9.83325 6.46004 10.0866C6.67337 10.3399 6.94004 10.5466 7.26004 10.6933C7.58004 10.8399 7.96004 10.9199 8.39337 10.9199C8.70671 10.9199 9.00004 10.8666 9.27337 10.7666C9.54671 10.6666 9.78671 10.5266 9.99337 10.3466C10.2 10.1666 10.3667 9.95992 10.4867 9.71992C10.6067 9.47992 10.68 9.22659 10.6867 8.95325H9.49337C9.48671 9.09325 9.45337 9.21992 9.39337 9.33992C9.33337 9.45992 9.25337 9.55992 9.15337 9.64658C9.05337 9.73325 8.94004 9.79992 8.80671 9.84659C8.68004 9.89325 8.54671 9.90658 8.40671 9.91325C8.16671 9.90658 7.96671 9.85992 7.81337 9.75992C7.64671 9.65325 7.51337 9.51325 7.42004 9.34659C7.32671 9.17992 7.25337 8.97992 7.22004 8.75992C7.18671 8.53992 7.16671 8.31325 7.16671 8.09325V7.91325C7.16671 7.67992 7.18671 7.45992 7.22004 7.23992ZM8.50004 1.33325C4.82004 1.33325 1.83337 4.31992 1.83337 7.99992C1.83337 11.6799 4.82004 14.6666 8.50004 14.6666C12.18 14.6666 15.1667 11.6799 15.1667 7.99992C15.1667 4.31992 12.18 1.33325 8.50004 1.33325ZM8.50004 13.3333C5.56004 13.3333 3.16671 10.9399 3.16671 7.99992C3.16671 5.05992 5.56004 2.66659 8.50004 2.66659C11.44 2.66659 13.8334 5.05992 13.8334 7.99992C13.8334 10.9399 11.44 13.3333 8.50004 13.3333Z" fill="#E9ECEF"/>
</g>
<defs>
<clipPath id="clip0_34_586">
<rect width="16" height="16" fill="white" transform="translate(0.5)"/>
</clipPath>
</defs>
</svg>
