<svg width="38" height="37" viewBox="0 0 38 37" fill="none" xmlns="http://www.w3.org/2000/svg">
<path d="M3.47454 0.092804C2.41954 0.357803 1.49954 1.0928 1.04954 2.0178C0.794538 2.5428 0.709538 2.8628 0.679538 3.4478C0.634538 4.2878 0.824538 5.0328 1.25454 5.6978C1.36454 5.8678 3.77954 8.3228 7.68454 12.2378L13.9395 18.4978L7.65954 24.7878C4.20454 28.2428 1.32954 31.1428 1.26954 31.2328C0.0195382 33.0728 0.649538 35.5728 2.62454 36.5978C3.16454 36.8828 3.65954 36.9978 4.31454 36.9978C4.97454 36.9978 5.45954 36.8828 6.02954 36.5928C6.43454 36.3878 6.53454 36.2878 12.7645 30.0628C16.2445 26.5928 19.1145 23.7478 19.1395 23.7478C19.1645 23.7478 22.0145 26.5678 25.4645 30.0128C30.1945 34.7328 31.8095 36.3178 32.0245 36.4428C32.9245 36.9628 33.9345 37.1178 34.8895 36.8728C35.2695 36.7778 35.9145 36.4578 36.2395 36.2128C36.8045 35.7778 37.3545 34.9328 37.5345 34.2228C37.7795 33.2428 37.6245 32.2428 37.0845 31.3328C36.9395 31.0878 35.5495 29.6728 30.6595 24.7728C27.2245 21.3328 24.4145 18.4978 24.4145 18.4728C24.4145 18.4428 27.1945 15.6428 30.5945 12.2478C33.9895 8.8528 36.8495 5.9678 36.9395 5.8428C37.3195 5.3328 37.5895 4.6028 37.6445 3.9578C37.8095 1.9178 36.2345 0.112804 34.1895 0.00780487C33.3645 -0.032196 32.6545 0.147804 31.9745 0.577805C31.7795 0.697803 29.7045 2.7378 25.4295 7.0128L19.1645 13.2728L12.9295 7.0428C9.49454 3.6128 6.58954 0.742802 6.46454 0.662804C6.14954 0.452805 5.78954 0.277805 5.41454 0.147804C4.94954 -0.0121956 3.98454 -0.0371971 3.47454 0.092804Z" fill="#4C5359"/>
</svg>
