<svg width="436" height="239" viewBox="0 0 436 239" fill="none" xmlns="http://www.w3.org/2000/svg">
<path d="M95.7758 5.93152C95.7249 2.70927 97.2737 0.740115 99.8335 0.514746C102.037 0.320773 104.208 2.1238 104.578 4.4542C104.93 6.66742 103.313 8.89025 100.965 9.42322C98.7852 9.91808 96.9579 8.73595 95.7758 5.93152Z" fill="#E9ECEF"/>
<path d="M191.831 93.3002C194.484 91.8201 196.599 91.9331 198.056 93.6173C199.463 95.2432 199.668 97.0936 198.571 98.9553C197.251 101.193 194.434 101.762 192.292 100.314C189.964 98.7398 189.744 96.1565 191.831 93.3002Z" fill="#E9ECEF"/>
<path d="M433.76 54.5295C431.591 55.6501 429.677 55.4856 428.113 53.8393C426.707 52.3598 426.5 50.5124 427.435 48.7157C428.377 46.905 430.113 45.825 432.009 46.5087C433.405 47.0123 434.864 48.29 435.54 49.6096C436.462 51.4119 435.519 53.1756 433.76 54.5295Z" fill="#E9ECEF"/>
<path d="M435.278 231.966C436.28 235.071 435.529 237.021 433.054 238.092C430.923 239.016 428.659 238.245 427.495 236.199C426.389 234.256 426.931 231.713 428.724 230.429C430.805 228.939 433.205 229.442 435.278 231.966Z" fill="#E9ECEF"/>
<path d="M3.01333 100.341C1.05603 98.8001 0.372693 96.7926 1.5004 94.9259C2.24789 93.6887 3.93666 92.6366 5.38778 92.3046C7.21268 91.8871 8.77529 93.0328 9.54668 94.8611C10.3031 96.6539 10.0462 98.3393 8.65572 99.7222C7.03857 101.331 5.16414 101.525 3.01333 100.341Z" fill="#E9ECEF"/>
<path d="M54.3188 92.4316C57.173 94.2563 57.9178 96.1704 56.8293 98.4798C55.8715 100.512 53.7159 101.546 51.6583 100.96C49.3669 100.308 47.9883 98.0571 48.4651 95.746C48.9976 93.1645 51.001 91.9799 54.3188 92.4316Z" fill="#E9ECEF"/>
<path d="M384.402 101.09C382.016 101.094 380.293 100.012 379.918 97.9782C379.664 96.6 380.051 94.5382 380.98 93.6607C381.985 92.712 384.028 92.3069 385.486 92.5296C387.443 92.8285 388.477 94.5178 388.455 96.6231C388.429 99.1971 386.978 100.545 384.402 101.09Z" fill="#E9ECEF"/>
<path d="M98.8913 146.649C96.1734 145.218 95.2536 143.62 95.774 141.494C96.3105 139.302 98.1729 137.797 100.305 137.964C102.566 138.141 104.002 139.41 104.512 141.611C105.222 144.679 102.712 146.997 98.8913 146.649Z" fill="#E9ECEF"/>
<path d="M246.473 143.418C245.066 146.376 243.392 147.322 240.957 146.694C238.919 146.169 237.563 144.352 237.642 142.252C237.732 139.82 239.824 137.855 242.222 137.949C244.895 138.054 246.497 140.024 246.473 143.418Z" fill="#E9ECEF"/>
<path d="M431.43 146.845C428.33 146.282 426.849 144.754 426.884 142.345C426.916 140.221 428.551 138.329 430.661 137.977C432.702 137.637 434.822 138.947 435.578 141.014C436.542 143.652 434.862 146.123 431.43 146.845Z" fill="#E9ECEF"/>
<path d="M244.707 184.634C246.862 186.988 247.119 189.059 245.612 190.965C244.24 192.699 241.921 193.197 240.001 192.169C238.089 191.147 237.214 188.948 237.876 186.835C238.715 184.161 241.445 183.211 244.707 184.634Z" fill="#E9ECEF"/>
<path d="M435.695 189.36C434.753 191.714 433.199 192.882 430.794 192.633C428.826 192.429 427.28 191.29 427.187 189.389C427.114 187.898 427.587 185.848 428.609 184.985C429.631 184.122 431.778 183.932 433.18 184.331C435.332 184.944 436.027 186.948 435.695 189.36Z" fill="#E9ECEF"/>
<path d="M104.092 232.046C104.94 234.819 104.378 236.75 102.441 237.856C100.561 238.929 98.714 238.774 97.1263 237.284C95.5506 235.806 95.1948 233.984 96.15 232.021C97.6786 228.88 101.597 228.829 104.092 232.046Z" fill="#E9ECEF"/>
<path d="M237.895 235.553C237.396 231.887 239.166 229.462 242.139 229.603C244.4 229.71 245.932 230.902 246.45 233.112C246.953 235.258 246.028 236.929 244.163 237.949C242.262 238.989 240.434 238.656 238.901 237.097C238.515 236.705 238.257 236.187 237.895 235.553Z" fill="#E9ECEF"/>
<path d="M338.804 237.993C335.649 238.954 333.515 238.049 332.587 235.503C331.781 233.295 332.856 230.782 334.979 229.91C337.133 229.025 339.667 229.972 340.72 232.056C341.735 234.067 341.15 236.035 338.804 237.993Z" fill="#E9ECEF"/>
<path d="M243.898 54.8858C240.723 55.4198 238.935 54.7242 238.092 52.6497C237.289 50.6752 237.626 48.8434 239.242 47.4068C241.14 45.719 244.065 46.0708 245.634 48.0866C247.384 50.3354 246.792 52.8382 243.898 54.8858Z" fill="#E9ECEF"/>
<path d="M286.856 8.58569C285.006 6.97817 284.535 5.15183 285.486 3.07421C286.311 1.271 287.907 0.418807 289.776 0.550848C291.644 0.682807 293.064 1.75516 293.699 3.63905C294.341 5.54309 293.786 7.17261 292.329 8.40665C290.687 9.79702 288.854 9.90659 286.856 8.58569Z" fill="#E9ECEF"/>
<path d="M148.511 183.899C150.965 184.852 152.183 186.463 151.824 188.968C151.529 191.029 150.243 192.27 148.212 192.607C145.548 193.048 143.175 191.162 142.989 188.558C142.789 185.746 144.951 183.844 148.511 183.899Z" fill="#E9ECEF"/>
<path d="M57.1561 189.355C55.691 192.298 53.7218 193.297 51.3195 192.471C49.3234 191.785 48.0597 189.6 48.4407 187.494C48.875 185.095 50.8312 183.623 53.2899 183.845C55.8378 184.076 57.2975 186.06 57.1561 189.355Z" fill="#E9ECEF"/>
<path d="M332.354 4.07752C333.952 0.674371 336.569 -0.347586 339.138 1.25925C341.269 2.5927 341.884 5.53673 340.347 7.57937C339.145 9.17649 337.522 9.92036 335.502 9.25791C333.095 8.46863 332.118 6.7312 332.354 4.07752Z" fill="#E9ECEF"/>
<path d="M387.674 190.876C386.248 192.685 384.342 193.234 382.628 192.375C381.379 191.75 380.204 190.254 379.771 188.898C379.165 187 380.155 185.286 382.007 184.328C383.845 183.377 385.675 183.634 387.117 185.028C388.812 186.665 388.929 188.675 387.674 190.876Z" fill="#E9ECEF"/>
<path d="M335.547 146.655C333.051 145.816 332.057 144.091 332.35 141.777C332.618 139.656 334.013 138.288 336.137 137.998C338.273 137.707 339.921 138.709 340.792 140.655C341.675 142.627 341.284 144.597 339.514 145.796C338.506 146.479 337.003 146.43 335.547 146.655Z" fill="#E9ECEF"/>
<path d="M285.051 141.925C285.524 139.646 286.772 138.272 288.907 137.991C290.819 137.74 292.388 138.572 293.351 140.244C294.266 141.834 294.174 143.474 293.085 144.991C291.928 146.602 290.301 147.164 288.436 146.703C286.104 146.127 285.029 144.479 285.051 141.925Z" fill="#E9ECEF"/>
<path d="M148.84 138.211C151.32 139.292 152.276 141.054 151.729 143.499C151.248 145.651 149.727 146.763 147.586 146.819C145.324 146.878 143.794 145.706 143.135 143.526C142.19 140.398 145.513 136.972 148.84 138.211Z" fill="#E9ECEF"/>
<path d="M56.7916 140.466C57.6571 143.353 56.8246 145.559 54.6523 146.476C52.4456 147.409 49.9782 146.552 48.8833 144.473C47.8313 142.476 48.4302 140.067 50.311 138.732C52.4101 137.241 54.7047 137.797 56.7916 140.466Z" fill="#E9ECEF"/>
<path d="M196.594 238.09C193.624 238.844 191.325 237.806 190.559 235.501C189.86 233.399 190.882 230.918 192.829 229.993C194.875 229.021 197.531 229.874 198.663 231.868C199.883 234.017 199.235 236.129 196.594 238.09Z" fill="#E9ECEF"/>
<path d="M333.452 93.6434C335.167 92.046 336.959 91.7244 338.869 92.7532C340.59 93.6804 341.667 95.3162 341.058 97.1249C340.581 98.5403 339.371 100.008 338.084 100.776C336.413 101.773 334.614 100.956 333.384 99.485C331.85 97.6511 331.866 95.6933 333.452 93.6434Z" fill="#E9ECEF"/>
<path d="M387.692 53.4364C385.046 55.7993 382.237 55.7415 380.513 53.4294C379.001 51.4025 379.471 48.4481 381.613 47.0989C383.43 45.9541 385.349 46.0086 386.96 47.4239C388.832 49.068 388.961 51.1325 387.692 53.4364Z" fill="#E9ECEF"/>
<path d="M289.571 229.588C291.956 229.935 293.709 231.115 293.784 233.347C293.831 234.741 293.121 236.717 292.07 237.44C290.929 238.224 288.857 238.314 287.445 237.881C285.533 237.293 284.766 235.393 285.098 233.377C285.484 231.025 287.014 229.78 289.571 229.588Z" fill="#E9ECEF"/>
<path d="M292.689 185.165C295.46 188.551 292.985 192.104 290.56 192.55C288.348 192.958 286.545 192.303 285.516 190.248C284.551 188.324 284.895 186.483 286.453 184.979C288.101 183.39 290.157 183.443 292.689 185.165Z" fill="#E9ECEF"/>
<path d="M288.873 92.2558C291.463 92.0954 293.051 93.2319 293.759 95.4855C294.359 97.3903 293.64 98.987 292.127 100.158C290.5 101.417 288.497 101.686 287.067 100.254C286.016 99.2022 285.222 97.4229 285.183 95.9451C285.131 93.9598 286.639 92.6678 288.873 92.2558Z" fill="#E9ECEF"/>
<path d="M197.306 184.569C199.16 186.155 199.718 187.95 198.818 190.052C198.091 191.751 196.736 192.624 194.866 192.657C192.883 192.692 191.492 191.778 190.72 189.981C189.945 188.179 190.266 186.514 191.646 185.131C193.283 183.49 195.173 183.471 197.306 184.569Z" fill="#E9ECEF"/>
<path d="M388.421 234.875C387.837 237.165 386.392 238.359 384.28 238.472C382.392 238.573 380.566 237.753 380.152 235.865C379.833 234.407 380.042 232.511 380.76 231.224C381.747 229.458 383.794 229.181 385.669 229.909C387.781 230.728 388.681 232.429 388.421 234.875Z" fill="#E9ECEF"/>
<path d="M97.348 191.742C95.5754 189.941 95.0855 188.05 96.3494 185.955C97.3604 184.278 98.9161 183.546 100.854 183.869C102.902 184.211 104.402 185.514 104.424 187.516C104.44 188.932 103.79 190.701 102.812 191.704C101.339 193.215 99.3038 192.988 97.348 191.742Z" fill="#E9ECEF"/>
<path d="M333.532 185.157C336.427 183.173 339.032 183.507 340.531 185.904C341.808 187.946 341.171 190.74 339.133 192.038C337.491 193.083 334.993 192.796 333.585 191.399C331.937 189.765 331.882 187.944 333.532 185.157Z" fill="#E9ECEF"/>
<path d="M49.1697 2.47235C50.8339 0.577635 52.7072 -0.0482651 54.8638 1.06423C56.5876 1.95348 57.4634 3.50905 57.2571 5.43862C57.0411 7.45757 55.8754 9.10932 53.8365 9.23498C52.4167 9.32251 50.6275 8.7981 49.5557 7.89301C47.9406 6.52919 47.9334 4.50897 49.1697 2.47235Z" fill="#E9ECEF"/>
<path d="M150.517 47.5106C152.082 49.3491 152.437 51.2143 151.23 53.1633C150.197 54.8317 148.483 55.7532 146.721 55.0326C145.344 54.4699 143.949 53.1981 143.269 51.8774C142.381 50.1541 143.291 48.4337 144.841 47.2673C146.689 45.8756 148.559 46.0866 150.517 47.5106Z" fill="#E9ECEF"/>
<path d="M98.1368 100.586C95.6909 98.7062 95.1142 97.0692 96.057 94.9464C96.937 92.965 98.4827 92.0341 100.652 92.2608C102.871 92.4926 104.083 93.8783 104.527 95.9476C105.255 99.3369 101.992 101.784 98.1368 100.586Z" fill="#E9ECEF"/>
<path d="M385.467 0.831606C388.227 2.37512 389.138 4.52242 388.163 6.82127C387.345 8.75031 385.043 9.86009 383.01 9.30599C380.722 8.68247 379.395 6.75524 379.661 4.44332C379.972 1.75484 382.279 0.252683 385.467 0.831606Z" fill="#E9ECEF"/>
<path d="M237.771 5.89756C237.732 2.61976 239.248 0.68588 241.835 0.504277C244.062 0.347968 246.255 2.203 246.545 4.48755C246.836 6.78419 245.271 8.8917 242.892 9.40702C240.721 9.87751 238.907 8.69251 237.771 5.89756Z" fill="#E9ECEF"/>
<path d="M145.952 92.4269C149.295 91.9861 151.262 93.1531 151.792 95.7423C152.271 98.0869 150.925 100.307 148.629 100.959C146.57 101.544 144.43 100.516 143.464 98.478C142.368 96.1665 143.099 94.2732 145.952 92.4269Z" fill="#E9ECEF"/>
<path d="M1.14771 233.087C2.44441 230.17 3.97148 229.217 6.32669 229.726C8.57598 230.211 9.78608 231.642 9.91469 233.914C10.0322 235.991 8.62668 237.806 6.59257 238.363C3.55794 239.193 1.1621 236.96 1.14771 233.087Z" fill="#E9ECEF"/>
<path d="M56.9936 49.2886C57.6868 51.6862 56.9841 53.4721 55.0503 54.615C53.3104 55.6433 51.4922 55.4846 49.9167 54.1526C48.4121 52.8805 47.7549 51.0557 48.7119 49.4233C49.4602 48.1469 50.937 46.9098 52.3384 46.4959C54.3888 45.8903 55.9936 47.1638 56.9936 49.2886Z" fill="#E9ECEF"/>
<path d="M50.8144 230.059C53.3138 229.129 55.288 229.716 56.6237 231.78C57.739 233.502 57.683 235.53 56.1415 236.831C55.0528 237.751 53.3141 238.354 51.8892 238.311C49.9819 238.254 48.8119 236.697 48.4566 234.806C48.0751 232.775 48.8866 231.213 50.8144 230.059Z" fill="#E9ECEF"/>
<path d="M144.647 8.4513C142.608 5.9564 142.491 3.9295 144.149 2.07499C145.588 0.466476 147.728 0.0864902 149.615 1.10461C151.509 2.12639 152.369 4.41273 151.703 6.47666C150.965 8.75873 147.531 10.7338 144.647 8.4513Z" fill="#E9ECEF"/>
<path d="M145.602 229.967C149.443 228.534 152.4 231.867 151.844 234.694C151.428 236.817 150.15 238.186 148.025 238.447C145.79 238.721 144.128 237.672 143.321 235.544C142.403 233.127 143.399 231.365 145.602 229.967Z" fill="#E9ECEF"/>
<path d="M9.85111 5.98213C9.02012 8.3864 7.43991 9.67893 5.09217 9.44948C3.02934 9.24786 1.52272 8.04153 1.1465 5.8427C0.685586 3.1489 2.45501 0.799287 5.09695 0.522082C7.85458 0.23275 9.88351 2.4686 9.85111 5.98213Z" fill="#E9ECEF"/>
<path d="M1.10079 188.912C0.93147 186.34 1.9885 184.636 4.26449 183.978C6.18491 183.424 7.95792 183.984 9.13083 185.722C10.2806 187.426 10.4485 189.404 8.99254 190.81C7.97462 191.793 6.27351 192.493 4.85496 192.534C2.83229 192.592 1.60434 191.072 1.10079 188.912Z" fill="#E9ECEF"/>
<path d="M388.457 142.642C387.833 145.68 385.946 147.192 383.448 146.833C381.096 146.495 379.496 144.488 379.65 142.07C379.791 139.84 381.651 138.03 383.887 137.948C386.358 137.857 388.111 139.589 388.457 142.642Z" fill="#E9ECEF"/>
<path d="M198.475 144.946C196.82 146.929 194.88 147.376 192.763 146.357C191.032 145.523 190.221 144.006 190.387 142.018C190.564 139.893 191.804 138.39 193.74 138.198C195.135 138.059 196.921 138.639 198.023 139.529C199.702 140.885 199.538 142.917 198.475 144.946Z" fill="#E9ECEF"/>
<path d="M434.447 8.24933C432.522 9.81233 430.647 9.88574 428.783 8.5873C427.148 7.44827 426.423 5.62687 427.2 3.95203C427.823 2.61124 429.236 1.32778 430.608 0.72149C432.414 -0.0761616 434.101 1.02655 435.118 2.60152C436.337 4.4878 436.116 6.41173 434.447 8.24933Z" fill="#E9ECEF"/>
<path d="M9.60193 140.761C10.2797 143.098 9.8686 145.175 7.8148 146.066C6.47562 146.646 4.51531 146.605 3.13207 146.07C1.37014 145.389 0.83198 143.529 1.14708 141.601C1.4701 139.624 2.75436 138.422 4.59477 138.058C6.78286 137.624 8.48904 138.547 9.60193 140.761Z" fill="#E9ECEF"/>
<path d="M435.426 94.8637C436.275 97.2172 435.649 98.9974 433.827 100.312C432.225 101.468 430.499 101.408 428.889 100.313C427.183 99.1519 426.32 97.3347 427.191 95.5302C427.824 94.2186 429.254 92.9393 430.623 92.4186C432.641 91.6513 434.298 92.8195 435.426 94.8637Z" fill="#E9ECEF"/>
<path d="M9.5031 48.8902C10.3259 51.1882 10.0518 53.3243 8.04253 54.296C6.6796 54.9551 4.63315 54.9475 3.16229 54.4462C1.35743 53.831 0.849968 51.9242 1.1311 50.0152C1.4051 48.1547 2.56913 46.937 4.32163 46.5121C6.483 45.9881 8.26907 46.7113 9.5031 48.8902Z" fill="#E9ECEF"/>
<path d="M239.364 100.142C237.611 98.4603 236.965 96.4337 238.256 94.6452C239.103 93.471 240.845 92.5435 242.312 92.3163C244.17 92.0287 245.603 93.3222 246.283 95.1673C246.972 97.0378 246.496 98.6796 245.039 99.9494C243.322 101.447 241.433 101.515 239.364 100.142Z" fill="#E9ECEF"/>
<path d="M99.5602 46.3995C102.647 46.544 104.543 48.1737 104.665 50.6132C104.773 52.7506 102.973 54.8872 100.833 55.1606C98.2749 55.4877 96.2327 54.0362 95.7191 51.5257C95.2605 49.2838 96.5856 47.4223 99.5602 46.3995Z" fill="#E9ECEF"/>
<path d="M197.606 47.332C199.311 49.0502 199.729 50.8501 198.668 52.9002C197.8 54.5792 196.279 55.5902 194.573 55.0935C193.142 54.6771 191.597 53.6065 190.786 52.3754C189.75 50.8033 190.293 48.9164 191.741 47.599C193.499 46 195.457 45.9337 197.606 47.332Z" fill="#E9ECEF"/>
<path d="M335.929 55.1334C332.847 53.936 331.684 51.8336 332.584 49.3752C333.454 47.0001 335.903 45.7633 338.184 46.5483C340.492 47.3426 341.798 49.8622 340.979 52.1713C340.179 54.4295 338.498 55.4176 335.929 55.1334Z" fill="#E9ECEF"/>
<path d="M286.916 54.4672C284.899 52.8195 284.495 50.8679 285.505 48.7545C286.337 47.0147 287.893 46.2195 289.853 46.3916C291.946 46.5753 293.499 47.7928 293.681 49.7502C293.81 51.1451 293.217 52.9146 292.33 54.0246C290.968 55.729 288.94 55.5167 286.916 54.4672Z" fill="#E9ECEF"/>
<path d="M195.143 0.529648C199.522 1.25067 200.212 5.96593 198.024 8.07246C196.639 9.40666 195.036 9.91886 193.194 9.14127C191.413 8.38942 190.42 7.08142 190.395 5.07137C190.369 3.05837 191.343 1.72916 193.099 0.937521C193.669 0.680713 194.336 0.639268 195.143 0.529648Z" fill="#E9ECEF"/>
</svg>
