<svg width="34" height="34" viewBox="0 0 34 34" fill="none" xmlns="http://www.w3.org/2000/svg">
<path d="M21.9359 32.5098C21.0429 32.8026 20.142 32.9655 19.2327 33.0896C18.4416 33.1976 17.6465 33.2431 16.8488 33.229C14.684 33.1909 12.6016 32.7603 10.6093 31.906C8.83709 31.1462 7.24601 30.113 5.83394 28.7959C3.25665 26.3918 1.60757 23.4694 0.854978 20.0288C0.511083 18.4567 0.443446 16.8637 0.540242 15.2726C0.654902 13.3879 1.15031 11.5819 1.92135 9.85324C2.58301 8.36979 3.4374 7.00733 4.50212 5.7852C6.22273 3.81023 8.27881 2.28513 10.7054 1.27579C12.1624 0.669737 13.6704 0.260887 15.2432 0.0998314C16.7311 -0.0525176 18.2128 -0.037359 19.6943 0.192893C22.6961 0.659437 25.357 1.87258 27.695 3.80372C29.5363 5.32461 30.9831 7.1606 32.0383 9.30109C32.7869 10.8198 33.2862 12.4225 33.5403 14.0955C33.6986 15.1384 33.7791 16.1925 33.7347 17.2473C33.639 19.5253 33.1083 21.6987 32.1178 23.7585C31.2131 25.6398 30.0062 27.2996 28.4817 28.7212C26.5971 30.4787 24.4293 31.7595 21.9359 32.5098ZM5.48761 6.11089C4.28305 7.46494 3.3198 8.97111 2.62255 10.646C1.98651 12.1739 1.59564 13.7658 1.48617 15.4126C1.40449 16.6413 1.46182 17.8729 1.65919 19.0958C1.91261 20.666 2.38734 22.1628 3.09671 23.5837C4.11964 25.6328 5.52582 27.3755 7.31001 28.8136C8.78108 29.9993 10.4101 30.8962 12.2041 31.4866C14.0337 32.0886 15.9106 32.3426 17.8379 32.2458C18.7967 32.1976 19.7424 32.0778 20.6759 31.8598C23.0555 31.304 25.1823 30.2364 27.0686 28.6865C28.6836 27.3595 29.9874 25.7748 30.9595 23.9249C32.2387 21.4902 32.8843 18.9074 32.7557 16.143C32.7261 15.5071 32.6899 14.8725 32.5927 14.2455C32.2861 12.2675 31.6314 10.4111 30.6168 8.68138C29.6933 7.10705 28.5267 5.73843 27.1318 4.56936C26.0527 3.66499 24.8631 2.92717 23.5796 2.3409C21.7866 1.52196 19.9046 1.06663 17.9405 0.965312C16.9268 0.91302 15.9129 0.958441 14.9048 1.10114C13.3549 1.32053 11.8744 1.76842 10.459 2.43325C8.56714 3.32184 6.92669 4.55203 5.48761 6.11089Z" fill="#E9ECEF"/>
<path d="M13.7471 18.0422C13.1666 18.042 12.6103 18.0361 12.0542 18.0445C11.8682 18.0473 11.7981 17.9876 11.7993 17.7959C11.8056 16.7156 11.8058 15.6353 11.799 14.555C11.7976 14.3448 11.8935 14.2948 12.0791 14.2955C12.9417 14.2986 13.8043 14.295 14.667 14.293C14.9824 14.2923 14.9891 14.2861 14.9895 13.9654C14.9905 13.1511 14.9735 12.3365 14.9935 11.5227C15.0422 9.54404 15.9998 8.13597 17.7554 7.2711C18.9024 6.70602 20.1298 6.62207 21.3844 6.76953C21.6635 6.80234 21.943 6.82875 22.2213 6.87144C22.3725 6.89463 22.4257 6.95733 22.4251 7.10648C22.4213 8.01746 22.4187 8.92852 22.4271 9.83944C22.4291 10.0581 22.3167 10.092 22.1404 10.092C21.4874 10.0919 20.834 10.082 20.1817 10.1041C19.3825 10.1312 18.7492 10.8078 18.7471 11.6085C18.7449 12.4066 18.7533 13.2049 18.7423 14.0028C18.7392 14.2254 18.8133 14.2999 19.0335 14.298C19.9686 14.29 20.9039 14.294 21.8391 14.2953C22.1375 14.2957 22.147 14.3223 22.1072 14.6185C21.9972 15.438 21.8979 16.2591 21.7941 17.0795C21.7609 17.3423 21.7226 17.6047 21.6952 17.8681C21.6773 18.0399 21.5631 18.0417 21.4348 18.0415C20.6527 18.0406 19.8707 18.0415 19.0887 18.0427C18.7477 18.0432 18.7466 18.0441 18.7466 18.3953C18.7461 20.9832 18.7462 23.5711 18.7459 26.159C18.7459 26.5067 18.7453 26.5069 18.4044 26.507C17.3644 26.5071 16.3243 26.5007 15.2844 26.5119C15.0481 26.5145 14.9851 26.4359 14.9856 26.2072C14.9924 23.6113 14.99 21.0153 14.9897 18.4194C14.9896 18.0422 14.9887 18.0417 14.6177 18.0411C14.3356 18.0407 14.0534 18.0418 13.7471 18.0422Z" fill="#E9ECEF"/>
</svg>
