<svg width="548" height="892" viewBox="0 0 548 892" fill="none" xmlns="http://www.w3.org/2000/svg">
<path d="M316.042 668C316.038 637.003 316.02 606.505 316.04 576.007C316.045 567.345 316.954 558.995 324.18 552.806C326.498 550.821 328.995 549.23 331.811 548.145C376.558 530.909 421.333 513.743 466.049 496.428C479.469 491.231 483.993 484.141 483.951 469.664C483.918 458.166 484.168 446.66 483.827 435.171C483.421 421.503 472.568 411.616 459.36 412.284C456.805 412.413 454.47 413.227 452.143 414.132C390.687 438.012 329.255 461.954 267.773 485.77C191.542 515.299 115.279 544.744 39.0025 574.156C32.1923 576.782 25.3335 579.219 17.6773 577.376C7.64172 574.961 0.425706 565.023 0.477326 556.234C0.816972 498.408 0.651078 440.578 0.650605 382.749C0.650498 371.222 5.60683 363.991 16.2661 359.87C62.8614 341.856 109.457 323.843 156.044 305.806C251.084 269.01 346.119 232.199 441.154 195.391C450.316 191.842 459.511 188.375 468.611 184.675C479.246 180.352 484.647 172.13 484.665 160.605C484.69 144.939 484.696 129.274 484.664 113.608C484.626 94.3837 469.234 83.6038 451.387 90.4238C424.169 100.824 397.007 111.372 369.816 121.843C327.553 138.117 285.291 154.395 243.014 170.633C232.717 174.588 226.554 183.174 226.39 194.413C226.268 202.744 226.053 211.092 226.441 219.407C226.971 230.741 221.825 238.765 212.314 243.863C205.477 247.528 198.35 251.105 190.277 251.306C177.445 251.627 167.972 243.974 165.124 231.507C164.264 227.744 165.769 224.297 165.739 220.638C165.561 198.475 165.644 176.309 165.663 154.144C165.673 142.279 171.468 133.944 182.574 129.667C243.336 106.27 304.096 82.8696 364.855 59.4662C413.647 40.6724 462.434 21.8655 511.229 3.08061C523.317 -1.57285 533.761 0.224615 541.178 8.19034C545.199 12.5081 547.349 17.5631 547.347 23.5443C547.326 84.5393 547.351 145.534 547.319 206.529C547.314 216.132 540.84 224.965 531.328 228.638C485.197 246.453 439.056 264.243 392.927 282.066C337.483 303.488 282.053 324.946 226.609 346.368C178.464 364.97 130.307 383.541 82.1597 402.135C66.7496 408.086 62.2804 414.686 62.3507 431.092C62.3992 442.424 62.3192 453.756 62.3623 465.089C62.4287 482.513 78.2532 493.459 94.5916 487.168C133.444 472.209 172.235 457.092 211.049 442.034C271.441 418.605 331.824 395.153 392.224 371.747C431.508 356.524 470.816 341.366 510.113 326.18C516.126 323.857 522.315 322.61 528.675 324.242C540.045 327.159 547.158 336.202 547.184 348.473C547.302 403.968 547.289 459.464 547.201 514.959C547.182 526.641 541.244 534.789 530.286 539.036C485.731 556.305 441.167 573.55 396.61 590.81C384.72 595.416 379.321 603.295 379.321 615.942C379.323 670.937 379.31 725.933 379.324 780.928C379.327 791.691 375.086 800.027 365.329 804.986C310.238 832.986 254.985 860.67 200.075 889.02C183.38 897.64 163.408 884.232 163.486 865.539C163.88 771.715 163.687 677.889 163.643 584.063C163.638 574.103 168.005 566.692 176.425 561.866C181.895 558.731 187.783 556.208 193.962 554.739C211.534 550.559 225.285 561.445 225.296 579.532C225.333 639.027 225.31 698.522 225.311 758.017C225.311 761.017 225.26 764.018 225.331 767.016C225.714 783.339 241.768 794.975 256.752 788.763C273.506 781.816 289.533 773.158 305.269 764.115C313.308 759.495 316.316 751.65 316.266 742.477C316.13 717.818 316.109 693.159 316.042 668Z" fill="#E9ECEF"/>
</svg>
