<svg width="2501" height="2432" viewBox="0 0 2501 2432" fill="none" xmlns="http://www.w3.org/2000/svg">
<g opacity="0.8" clip-path="url(#clip0_180_347)">
<path d="M1245.34 0C557.744 0 0.175781 557.471 0.175781 1245.17C0.175781 1795.32 356.953 2262.06 851.699 2426.71C913.926 2438.23 936.777 2399.7 936.777 2366.81C936.777 2337.12 935.615 2239.02 935.088 2134.98C588.672 2210.3 515.576 1988.07 515.576 1988.07C458.936 1844.14 377.324 1805.88 377.324 1805.88C264.355 1728.59 385.84 1730.18 385.84 1730.18C510.879 1738.96 576.719 1858.5 576.719 1858.5C687.773 2048.86 868.008 1993.82 939.062 1962.01C950.234 1881.52 982.51 1826.6 1018.12 1795.51C741.553 1764.01 450.811 1657.25 450.811 1180.14C450.811 1044.2 499.453 933.115 579.111 845.918C566.182 814.551 523.564 687.91 591.172 516.397C591.172 516.397 695.732 482.93 933.682 644.033C1033 616.436 1139.52 602.607 1245.34 602.139C1351.16 602.607 1457.76 616.436 1557.28 644.033C1794.94 482.93 1899.36 516.397 1899.36 516.397C1967.13 687.91 1924.49 814.551 1911.56 845.918C1991.4 933.115 2039.71 1044.19 2039.71 1180.14C2039.71 1658.38 1748.42 1763.69 1471.15 1794.51C1515.81 1833.15 1555.61 1908.94 1555.61 2025.1C1555.61 2191.7 1554.16 2325.79 1554.16 2366.81C1554.16 2399.94 1576.57 2438.77 1639.7 2426.54C2134.17 2261.71 2490.5 1795.14 2490.5 1245.17C2490.5 557.471 1933.01 0 1245.34 0Z" fill="#E9ECEF"/>
<path d="M466.533 1773.77C463.799 1779.95 454.053 1781.81 445.195 1777.57C436.162 1773.51 431.084 1765.07 434.014 1758.86C436.699 1752.49 446.445 1750.71 455.459 1754.99C464.512 1759.04 469.668 1767.56 466.533 1773.77ZM527.783 1828.42C521.846 1833.93 510.234 1831.37 502.354 1822.67C494.209 1813.98 492.686 1802.38 498.711 1796.79C504.834 1791.29 516.094 1793.86 524.258 1802.55C532.402 1811.33 533.984 1822.86 527.773 1828.43M569.805 1898.34C562.168 1903.64 549.688 1898.67 541.982 1887.6C534.355 1876.53 534.356 1863.25 542.148 1857.93C549.883 1852.61 562.168 1857.39 569.98 1868.38C577.598 1879.64 577.598 1892.92 569.795 1898.35M640.859 1979.33C634.033 1986.85 619.502 1984.83 608.857 1974.56C597.979 1964.52 594.941 1950.27 601.787 1942.74C608.691 1935.21 623.311 1937.32 634.033 1947.51C644.844 1957.53 648.135 1971.88 640.859 1979.33ZM732.695 2006.67C729.697 2016.42 715.693 2020.85 701.592 2016.71C687.51 2012.44 678.291 2001.02 681.133 1991.16C684.063 1981.35 698.125 1976.73 712.334 1981.16C726.397 1985.41 735.625 1996.75 732.695 2006.67ZM837.227 2018.26C837.578 2028.54 825.615 2037.05 810.811 2037.24C795.918 2037.56 783.877 2029.25 783.721 2019.15C783.721 2008.78 795.41 2000.34 810.293 2000.1C825.098 1999.8 837.227 2008.06 837.227 2018.26ZM939.902 2014.33C941.68 2024.35 931.387 2034.64 916.689 2037.37C902.236 2040.01 888.857 2033.83 887.012 2023.9C885.215 2013.62 895.703 2003.34 910.127 2000.67C924.854 1998.12 938.027 2004.14 939.902 2014.33Z" fill="#E9ECEF"/>
</g>
<defs>
<clipPath id="clip0_180_347">
<rect width="2500" height="2432" fill="white" transform="translate(0.175781)"/>
</clipPath>
</defs>
</svg>
