<svg width="2490" height="2501" viewBox="0 0 2490 2501" fill="none" xmlns="http://www.w3.org/2000/svg">
<path d="M0 183.834C0 85.3819 82.4229 5.46851 184.027 5.46851H2305.97C2407.62 5.46851 2490 85.3819 2490 183.834V2317.13C2490 2415.61 2407.62 2495.47 2305.97 2495.47H184.027C82.4326 2495.47 0 2415.62 0 2317.16V183.805V183.834Z" fill="#E9ECEF"/>
<path d="M756.688 2089.27V968.262H384.083V2089.27H756.727H756.688ZM570.463 815.234C700.371 815.234 781.247 729.154 781.247 621.578C778.816 511.551 700.371 427.874 572.934 427.874C445.409 427.874 362.12 511.551 362.12 621.569C362.12 729.144 442.967 815.224 568.022 815.224H570.434L570.463 815.234ZM962.93 2089.27H1335.51V1463.31C1335.51 1429.86 1337.94 1396.31 1347.78 1372.41C1374.7 1305.44 1436.01 1236.12 1538.97 1236.12C1673.76 1236.12 1727.71 1338.91 1727.71 1489.63V2089.27H2100.28V1446.52C2100.28 1102.21 1916.48 941.981 1671.34 941.981C1470.36 941.981 1382.1 1054.31 1333.05 1130.82H1335.54V968.301H962.949C967.813 1073.46 962.92 2089.31 962.92 2089.31L962.93 2089.27Z" fill="black"/>
</svg>
