<svg width="34" height="34" viewBox="0 0 34 34" fill="none" xmlns="http://www.w3.org/2000/svg">
<mask id="mask0_180_362" style="mask-type:alpha" maskUnits="userSpaceOnUse" x="0" y="0" width="34" height="34">
<rect width="34" height="34" fill="#D9D9D9"/>
</mask>
<g mask="url(#mask0_180_362)">
<path d="M5.66665 28.3334C4.88748 28.3334 4.22047 28.056 3.6656 27.5011C3.11074 26.9463 2.83331 26.2792 2.83331 25.5001V8.50008C2.83331 7.72091 3.11074 7.0539 3.6656 6.49904C4.22047 5.94418 4.88748 5.66675 5.66665 5.66675H28.3333C29.1125 5.66675 29.7795 5.94418 30.3344 6.49904C30.8892 7.0539 31.1666 7.72091 31.1666 8.50008V25.5001C31.1666 26.2792 30.8892 26.9463 30.3344 27.5011C29.7795 28.056 29.1125 28.3334 28.3333 28.3334H5.66665ZM17 18.4167L5.66665 11.3334V25.5001H28.3333V11.3334L17 18.4167ZM17 15.5834L28.3333 8.50008H5.66665L17 15.5834ZM5.66665 11.3334V8.50008V25.5001V11.3334Z" fill="#E9ECEF"/>
</g>
</svg>
