<svg width="41" height="41" viewBox="0 0 41 41" fill="none" xmlns="http://www.w3.org/2000/svg">
<path d="M9.73494 0.757484C8.98994 0.837486 7.98994 1.09249 7.18494 1.40749C4.96994 2.27249 3.09494 3.96249 1.99494 6.07249C1.47994 7.06249 1.20994 7.84249 0.974943 9.04749L0.864943 9.59749L0.849943 20.1725C0.834943 27.3325 0.844943 30.9575 0.884943 31.3975C0.994943 32.7875 1.30494 33.9125 1.91994 35.1475C3.27494 37.8775 5.85494 39.8575 8.84494 40.4675C9.87494 40.6775 9.95494 40.6775 21.1849 40.6625C33.0299 40.6425 32.0199 40.6675 33.3099 40.3475C34.7499 39.9875 36.1549 39.2525 37.3399 38.2375C39.3099 36.5475 40.5099 34.2225 40.7799 31.5775C40.8549 30.8825 40.8549 10.5975 40.7849 9.86749C40.5849 7.81249 39.8049 5.89749 38.5449 4.35749C38.1299 3.85749 37.2949 3.05749 36.7699 2.66249C35.4899 1.70749 33.7949 1.01749 32.1949 0.797485C31.6999 0.732487 30.3249 0.722485 20.7699 0.732487C14.7949 0.732487 9.82994 0.747486 9.73494 0.757484ZM32.0349 5.81749C33.9949 6.36249 35.3899 7.86749 35.7549 9.82749C35.8299 10.2025 35.8349 11.3575 35.8249 20.8975L35.8099 31.5475L35.6949 31.9475C35.4399 32.8175 34.9899 33.5775 34.3649 34.2025C33.6899 34.8725 32.9699 35.2875 31.9949 35.5625L31.5099 35.6975H20.8349H10.1599L9.67494 35.5625C8.70494 35.2975 7.96994 34.8725 7.28494 34.1775C6.57994 33.4725 6.13494 32.6325 5.92994 31.6375C5.83494 31.1925 5.83494 30.8075 5.84494 20.4875L5.85994 9.79749L5.99494 9.37249C6.18494 8.76749 6.35494 8.40749 6.66994 7.93249C7.42494 6.79249 8.63494 6.00249 10.0099 5.74749C10.2899 5.69749 12.4899 5.68249 20.9849 5.69249L31.6099 5.69749L32.0349 5.81749Z" fill="#4C5359"/>
</svg>
