<svg width="40" height="39" viewBox="0 0 40 39" fill="none" xmlns="http://www.w3.org/2000/svg">
<path d="M19.365 0.310772C18.74 0.515774 18.26 0.900772 17.875 1.50577C17.775 1.67077 14.725 7.71077 11.105 14.9308C7.47996 22.1558 3.71496 29.6508 2.73996 31.5908C0.799958 35.4358 0.819958 35.3908 0.829958 36.2408C0.839958 37.4908 1.61996 38.4608 2.89996 38.8258C3.20996 38.9108 3.87996 38.9158 20.125 38.9158C36.37 38.9158 37.04 38.9108 37.35 38.8258C37.875 38.6758 38.305 38.4208 38.67 38.0408C39.36 37.3258 39.605 36.3108 39.32 35.3308C39.22 34.9958 36.195 28.8408 31.68 19.7908C29.75 15.9258 27.325 11.0458 26.29 8.94077C25.255 6.83577 23.99 4.26577 23.475 3.22577C22.57 1.38577 22.535 1.32077 22.21 0.995773C21.855 0.645771 21.33 0.340771 20.9 0.245773C20.49 0.150772 19.765 0.180771 19.365 0.310772ZM20.52 9.87577C20.815 10.3758 22.965 14.6908 26.44 21.7408C27.5 23.9008 29.175 27.2808 30.16 29.2558C31.495 31.9358 31.95 32.8858 31.95 33.0208C31.95 33.3658 32.86 33.3408 20.1 33.3408C7.50996 33.3408 8.29996 33.3608 8.29996 33.0608C8.29996 32.9108 19.77 9.97577 20.07 9.52577C20.12 9.45077 20.175 9.39077 20.195 9.39077C20.215 9.39077 20.36 9.61077 20.52 9.87577Z" fill="#4C5359"/>
</svg>
