<svg width="128" height="16" viewBox="0 0 128 16" fill="none" xmlns="http://www.w3.org/2000/svg">
<path d="M0.564575 3.24655V6.47155L2.19958 6.54655C3.72958 6.60655 3.92458 6.65155 4.98958 7.17655C5.94958 7.65655 6.51958 8.12155 8.78458 10.3115C11.6046 13.0565 12.1746 13.5215 13.8396 14.3615C15.5046 15.2165 16.8546 15.5315 19.1196 15.6215C21.2346 15.7115 22.2546 15.5915 23.9646 15.0365C26.3196 14.2865 27.5646 13.4165 30.8646 10.1915C34.2996 6.84655 35.1696 6.39655 38.0046 6.54655C39.2496 6.62155 39.5496 6.69655 40.5396 7.17655C41.4696 7.64155 42.0246 8.10655 44.1696 10.2065C48.5346 14.4965 50.4696 15.4865 54.7896 15.6215C56.8446 15.6815 57.1596 15.6515 58.5246 15.3065C61.5396 14.5265 62.8146 13.7015 66.4146 10.1915C69.8496 6.84655 70.7196 6.39655 73.5546 6.54655C75.8046 6.66655 76.5246 7.10155 79.6896 10.2065C83.3046 13.7615 85.0746 14.8565 88.2396 15.4415C89.8296 15.7415 92.5896 15.6815 94.1646 15.2915C95.5896 14.9465 97.9746 13.7165 99.1896 12.7265C99.7746 12.2465 100.99 11.0765 101.89 10.1465C102.805 9.20155 103.945 8.15155 104.44 7.79155C106.135 6.59155 107.98 6.17155 109.855 6.57655C111.82 6.98155 112.435 7.41655 115.885 10.8365C119.38 14.3015 121.75 15.4415 125.785 15.6215L127.765 15.7115V12.5615V9.41155L126.385 9.32155C123.58 9.14155 122.74 8.66155 119.455 5.40655C116.35 2.30155 114.79 1.26655 112.045 0.471548C111.07 0.201549 110.515 0.141548 108.49 0.141548C106.45 0.141548 105.91 0.201549 104.905 0.486548C102.205 1.26655 100.495 2.42155 97.3896 5.55655C95.1096 7.85155 94.2996 8.48155 92.9946 8.94655C91.8696 9.35155 89.9196 9.38155 88.6896 9.00655C87.3696 8.60155 86.4996 7.95655 83.9496 5.42155C79.7496 1.26655 77.4996 0.171548 73.0896 0.156549C68.6646 0.156549 66.2046 1.29655 62.3646 5.15155C61.2546 6.27655 60.0246 7.44655 59.6496 7.74655C58.0596 9.05155 55.9146 9.57655 53.9046 9.17155C52.2096 8.82655 51.3846 8.27155 48.5646 5.54155C45.7746 2.82655 44.6046 1.92655 42.8946 1.19155C41.0196 0.366549 39.9246 0.156549 37.5396 0.156549C33.1146 0.156549 30.6546 1.29655 26.8146 5.16655C25.7046 6.27655 24.4746 7.44655 24.0996 7.74655C21.7446 9.66655 18.3696 9.83155 15.9096 8.15155C15.5196 7.88155 14.1096 6.60655 12.7896 5.31655C8.70958 1.35655 6.63958 0.321548 2.40958 0.111548L0.564575 0.0215483V3.24655Z" fill="#4C5359"/>
</svg>
