<svg width="40" height="40" viewBox="0 0 40 40" fill="none" xmlns="http://www.w3.org/2000/svg">
<path d="M18.675 0.680012C15.205 0.960014 12.05 2.03001 9.29996 3.86501C5.47996 6.41501 2.76996 10.08 1.43496 14.505C0.45496 17.74 0.39496 21.58 1.27996 24.94C2.36996 29.095 4.86996 32.825 8.28996 35.42C10.7 37.24 13.51 38.49 16.42 39.02C17.785 39.275 18.375 39.325 20 39.325C21.625 39.325 22.215 39.275 23.58 39.02C31.365 37.595 37.595 31.365 39.02 23.58C39.275 22.215 39.325 21.625 39.325 20C39.325 18.375 39.275 17.785 39.02 16.42C37.78 9.64501 32.885 3.97001 26.34 1.71001C24.285 1.00001 22.565 0.705013 20.3 0.680012C19.545 0.670013 18.815 0.670013 18.675 0.680012ZM20.405 5.30501C21.33 5.80001 22.505 7.48001 23.32 9.48501C23.555 10.06 24.05 11.515 24.05 11.63C24.05 11.69 23.405 11.7 20 11.7C16.63 11.7 15.95 11.69 15.95 11.63C15.95 11.595 16.065 11.22 16.2 10.8C16.93 8.59001 17.87 6.87001 18.92 5.83501C19.305 5.45501 19.78 5.15501 19.995 5.15001C20.06 5.15001 20.245 5.22001 20.405 5.30501ZM12.725 7.25001C12.425 7.82501 11.765 9.74501 11.46 10.935L11.265 11.675L9.50496 11.69C8.38496 11.695 7.74996 11.685 7.74996 11.65C7.74996 11.53 8.70996 10.345 9.30996 9.72001C10.28 8.72001 11.16 8.00501 12.265 7.33001C12.545 7.15501 12.78 7.03001 12.79 7.05501C12.8 7.07501 12.77 7.16501 12.725 7.25001ZM28.6 7.90001C29.34 8.43001 29.97 8.98001 30.69 9.72001C31.29 10.345 32.25 11.53 32.25 11.65C32.25 11.685 31.615 11.695 30.495 11.69L28.735 11.675L28.54 10.925C28.29 9.96001 27.875 8.70001 27.52 7.85001C27.37 7.48001 27.23 7.13501 27.215 7.08501C27.18 6.97501 27.885 7.39001 28.6 7.90001ZM10.48 16.585C10.3 18.72 10.3 21.28 10.48 23.41L10.515 23.8H8.08496C6.74996 23.8 5.64496 23.78 5.62996 23.755C5.57996 23.675 5.30496 22.23 5.23996 21.7C5.15496 21.02 5.15496 18.98 5.23996 18.3C5.30496 17.77 5.57996 16.325 5.62996 16.245C5.64496 16.22 6.74996 16.2 8.08496 16.2H10.515L10.48 16.585ZM24.97 16.41C25.185 17.945 25.185 22.055 24.97 23.585L24.94 23.8H20H15.06L15.03 23.585C14.815 22.05 14.815 17.95 15.03 16.41L15.06 16.2H20H24.94L24.97 16.41ZM34.51 16.85C34.76 17.995 34.82 18.615 34.82 20C34.82 21.385 34.76 22.005 34.51 23.15L34.375 23.775L31.93 23.79L29.485 23.8L29.52 23.38C29.62 22.125 29.645 21.475 29.645 20C29.645 18.525 29.62 17.875 29.52 16.62L29.485 16.2L31.93 16.21L34.375 16.225L34.51 16.85ZM11.46 29.075C11.71 30.04 12.125 31.3 12.48 32.15C12.63 32.52 12.77 32.865 12.785 32.915C12.805 32.98 12.68 32.925 12.345 32.725C11.235 32.05 10.29 31.29 9.30996 30.28C8.70996 29.655 7.74996 28.47 7.74996 28.35C7.74996 28.315 8.38496 28.305 9.50496 28.31L11.265 28.325L11.46 29.075ZM24.05 28.37C24.05 28.485 23.555 29.94 23.32 30.52C22.485 32.555 21.29 34.25 20.345 34.73C20.035 34.885 19.95 34.88 19.595 34.695C18.665 34.2 17.505 32.535 16.68 30.515C16.445 29.94 15.95 28.485 15.95 28.37C15.95 28.31 16.63 28.3 20 28.3C23.405 28.3 24.05 28.31 24.05 28.37ZM32.25 28.35C32.25 28.465 31.3 29.645 30.73 30.235C29.745 31.255 28.81 32.015 27.73 32.675C27.35 32.91 27.195 32.98 27.215 32.915C27.23 32.865 27.37 32.52 27.52 32.15C27.87 31.31 28.29 30.045 28.525 29.125C28.625 28.74 28.715 28.395 28.725 28.36C28.75 28.285 32.25 28.27 32.25 28.35Z" fill="#4C5359"/>
</svg>
